<?xml version="1.0" encoding="UTF-8" standalone="no"?>
<svg
   xmlns:dc="http://purl.org/dc/elements/1.1/"
   xmlns:cc="http://creativecommons.org/ns#"
   xmlns:rdf="http://www.w3.org/1999/02/22-rdf-syntax-ns#"
   xmlns:svg="http://www.w3.org/2000/svg"
   xmlns="http://www.w3.org/2000/svg"
   xmlns:sodipodi="http://sodipodi.sourceforge.net/DTD/sodipodi-0.dtd"
   xmlns:inkscape="http://www.inkscape.org/namespaces/inkscape"
   width="76pt"
   height="76pt"
   viewBox="0 0 76 76"
   version="1.1"
   id="svg2"
   inkscape:version="0.91 r13725"
   sodipodi:docname="appointment-new.svg">
  <metadata
     id="metadata47">
    <rdf:RDF>
      <cc:Work
         rdf:about="">
        <dc:format>image/svg+xml</dc:format>
        <dc:type
           rdf:resource="http://purl.org/dc/dcmitype/StillImage" />
      </cc:Work>
    </rdf:RDF>
  </metadata>
  <sodipodi:namedview
     pagecolor="#ffffff"
     bordercolor="#666666"
     borderopacity="1"
     objecttolerance="10"
     gridtolerance="10"
     guidetolerance="10"
     inkscape:pageopacity="0"
     inkscape:pageshadow="2"
     inkscape:window-width="1366"
     inkscape:window-height="720"
     id="namedview45"
     showgrid="false"
     inkscape:zoom="2.4842105"
     inkscape:cx="-5.2330507"
     inkscape:cy="47.499999"
     inkscape:window-x="0"
     inkscape:window-y="0"
     inkscape:window-maximized="1"
     inkscape:current-layer="svg2" />
  <defs
     id="defs4" />
  <path
     style="fill:#666666;fill-opacity:1;fill-rule:nonzero;stroke:none"
     d="M 47.5 15.835938 C 30.009765 15.835938 15.835937 30.009765 15.835938 47.5 C 15.835938 49.424155 16.016871 51.305162 16.345703 53.134766 L 24.427734 53.134766 C 23.987853 51.327985 23.75 49.442028 23.75 47.5 C 23.75 34.384765 34.384765 23.75 47.5 23.75 C 60.615235 23.75 71.25 34.384765 71.25 47.5 C 71.25 60.615235 60.615235 71.25 47.5 71.25 C 45.266701 71.25 43.107782 70.933896 41.058594 70.357422 L 41.058594 78.507812 C 43.138374 78.937597 45.292795 79.164062 47.5 79.164062 C 64.985351 79.164062 79.164062 64.985351 79.164062 47.5 C 79.164062 30.009765 64.985351 15.835937 47.5 15.835938 z M 43.539062 27.710938 L 43.539062 55.414062 L 63.335938 55.414062 L 63.335938 47.5 L 51.460938 47.5 L 51.460938 27.710938 L 43.539062 27.710938 z "
     transform="scale(0.8,0.8)"
     id="path3378" />
  <path
     inkscape:connector-curvature="0"
     style="fill:#666666;fill-opacity:1;fill-rule:nonzero;stroke:none"
     d="m 16.532376,46.908303 0,6.335938 -6.335938,0 0,6.332031 6.335938,0 0,6.332036 6.332031,0 0,-6.332036 6.332031,0 0,-6.332031 -6.332031,0 0,-6.335938 z m 0,0"
     id="path3391" />
</svg>
