<?xml version="1.0" encoding="UTF-8"?>
<svg xmlns="http://www.w3.org/2000/svg" xmlns:xlink="http://www.w3.org/1999/xlink" width="76pt" height="76pt" viewBox="0 0 76 76" version="1.1">
<g id="surface1">
<path style=" stroke:none;fill-rule:nonzero;fill:rgb(52.941176%,82.745098%,48.627451%);fill-opacity:1;" d="M 26.335938 12.667969 C 25.46875 12.664062 13.695312 17.484375 12.980469 18.136719 C 12.121094 18.917969 13.085938 24.359375 15.117188 30.171875 C 19.703125 43.347656 31.523438 55.332031 44.835938 60.308594 C 48.691406 61.75 56.171875 63.5625 57.214844 63.308594 C 57.523438 63.234375 59.027344 60.085938 60.554688 56.308594 C 62.085938 52.539062 63.332031 49.371094 63.332031 49.273438 C 63.332031 49.179688 59.902344 47.390625 55.707031 45.296875 L 48.082031 41.488281 L 44.421875 45.101562 L 40.761719 48.710938 L 38.460938 47.121094 C 35.867188 45.332031 29.84375 39.238281 28.234375 36.769531 L 27.171875 35.144531 L 30.792969 31.503906 L 34.410156 27.867188 L 30.585938 20.269531 C 28.484375 16.089844 26.574219 12.667969 26.335938 12.667969 Z M 26.335938 12.667969 "/>
</g>
</svg>
