<?xml version="1.0" encoding="UTF-8"?>
<svg xmlns="http://www.w3.org/2000/svg" xmlns:xlink="http://www.w3.org/1999/xlink" width="76pt" height="76pt" viewBox="0 0 76 76" version="1.1">
<g id="surface1">
<path style=" stroke:none;fill-rule:nonzero;fill:rgb(90.588235%,29.803922%,23.529412%);fill-opacity:1;" d="M 64.082031 50.386719 C 64.695312 49.777344 69.621094 37.992188 69.667969 37.015625 C 69.71875 35.855469 65.183594 32.679688 59.632812 29.988281 C 47.050781 23.890625 30.195312 23.773438 17.242188 29.691406 C 13.492188 31.40625 6.910156 35.433594 6.347656 36.355469 C 6.183594 36.628906 7.351562 39.925781 8.941406 43.691406 L 8.941406 43.695312 C 10.53125 47.460938 11.886719 50.59375 11.957031 50.664062 C 12.023438 50.730469 15.722656 49.566406 20.175781 48.074219 L 28.273438 45.363281 L 28.304688 40.195312 L 28.339844 35.035156 L 31.09375 34.53125 C 34.199219 33.957031 42.777344 34.011719 45.667969 34.621094 L 47.570312 35.023438 L 47.585938 40.175781 L 47.597656 45.324219 L 55.6875 48.007812 C 60.136719 49.480469 63.914062 50.554688 64.082031 50.386719 Z M 64.082031 50.386719 "/>
</g>
</svg>
