<?xml version="1.0" encoding="UTF-8"?>
<svg xmlns="http://www.w3.org/2000/svg" xmlns:xlink="http://www.w3.org/1999/xlink" width="76pt" height="76pt" viewBox="0 0 76 76" version="1.1">
<g id="surface1">
<path style=" stroke:none;fill-rule:nonzero;fill:rgb(93.333333%,93.333333%,93.333333%);fill-opacity:1;" d="M 38 12.667969 C 38 12.667969 19 33.839844 19 44.332031 C 19 54.824219 27.507812 63.332031 38 63.332031 C 48.492188 63.332031 57 54.824219 57 44.332031 C 57 33.839844 38 12.667969 38 12.667969 Z M 22.835938 39.800781 C 25.078125 48.078125 32.589844 53.832031 41.167969 53.832031 C 45.394531 53.832031 49.496094 52.417969 52.832031 49.820312 C 50.535156 56.027344 44.621094 60.15625 38 60.167969 C 29.253906 60.167969 22.167969 53.078125 22.167969 44.332031 C 22.167969 42.796875 22.390625 41.273438 22.835938 39.800781 Z M 22.835938 39.800781 "/>
</g>
</svg>
