<?xml version="1.0" encoding="UTF-8" standalone="no"?>
<svg
   xmlns:dc="http://purl.org/dc/elements/1.1/"
   xmlns:cc="http://creativecommons.org/ns#"
   xmlns:rdf="http://www.w3.org/1999/02/22-rdf-syntax-ns#"
   xmlns:svg="http://www.w3.org/2000/svg"
   xmlns="http://www.w3.org/2000/svg"
   xmlns:sodipodi="http://sodipodi.sourceforge.net/DTD/sodipodi-0.dtd"
   xmlns:inkscape="http://www.inkscape.org/namespaces/inkscape"
   width="76pt"
   height="76pt"
   viewBox="0 0 76 76"
   version="1.1"
   id="svg46"
   inkscape:version="0.91 r13725"
   sodipodi:docname="document-send.svg">
  <metadata
     id="metadata57">
    <rdf:RDF>
      <cc:Work
         rdf:about="">
        <dc:format>image/svg+xml</dc:format>
        <dc:type
           rdf:resource="http://purl.org/dc/dcmitype/StillImage" />
      </cc:Work>
    </rdf:RDF>
  </metadata>
  <defs
     id="defs55" />
  <sodipodi:namedview
     pagecolor="#ffffff"
     bordercolor="#666666"
     borderopacity="1"
     objecttolerance="10"
     gridtolerance="10"
     guidetolerance="10"
     inkscape:pageopacity="0"
     inkscape:pageshadow="2"
     inkscape:window-width="640"
     inkscape:window-height="480"
     id="namedview53"
     showgrid="false"
     inkscape:zoom="2.4842105"
     inkscape:cx="47.5"
     inkscape:cy="47.5"
     inkscape:window-x="0"
     inkscape:window-y="0"
     inkscape:window-maximized="0"
     inkscape:current-layer="svg46" />
  <path
     inkscape:connector-curvature="0"
     id="path49"
     d="m 25.332031,12.667969 -12.664062,12.664062 0,38 19,0 0,-6.332031 L 19,57 l 0,-28.5 9.5,0 0,-9.5 15.832031,0 0,12.667969 6.335938,0 0,-19 z m 0,0"
     style="fill:#666666;fill-opacity:1;fill-rule:nonzero;stroke:none" />
  <path
     inkscape:connector-curvature="0"
     id="path51"
     d="m 53.832031,38 9.5,9.5 -9.5,9.5 0,-6.332031 -9.5,0 c -1.753906,0 -3.164062,1.410156 -3.164062,3.164062 0,1.753907 1.410156,3.167969 3.164062,3.167969 L 47.5,57 l 0,6.332031 -3.167969,0 c -5.261719,0 -9.5,-4.234375 -9.5,-9.5 0,-5.261719 4.238281,-9.5 9.5,-9.5 l 9.5,0 z m 0,0"
     style="fill:#85d17a;fill-opacity:1;fill-rule:nonzero;stroke:none" />
</svg>
