<?xml version="1.0" encoding="UTF-8" standalone="no"?>
<svg
   xmlns:dc="http://purl.org/dc/elements/1.1/"
   xmlns:cc="http://creativecommons.org/ns#"
   xmlns:rdf="http://www.w3.org/1999/02/22-rdf-syntax-ns#"
   xmlns:svg="http://www.w3.org/2000/svg"
   xmlns="http://www.w3.org/2000/svg"
   xmlns:sodipodi="http://sodipodi.sourceforge.net/DTD/sodipodi-0.dtd"
   xmlns:inkscape="http://www.inkscape.org/namespaces/inkscape"
   width="76pt"
   height="76pt"
   viewBox="0 0 76 76"
   version="1.1"
   id="svg13"
   inkscape:version="0.91 r13725"
   sodipodi:docname="edit-find-replace.svg">
  <metadata
     id="metadata22">
    <rdf:RDF>
      <cc:Work
         rdf:about="">
        <dc:format>image/svg+xml</dc:format>
        <dc:type
           rdf:resource="http://purl.org/dc/dcmitype/StillImage" />
      </cc:Work>
    </rdf:RDF>
  </metadata>
  <defs
     id="defs20" />
  <sodipodi:namedview
     pagecolor="#ffffff"
     bordercolor="#666666"
     borderopacity="1"
     objecttolerance="10"
     gridtolerance="10"
     guidetolerance="10"
     inkscape:pageopacity="0"
     inkscape:pageshadow="2"
     inkscape:window-width="640"
     inkscape:window-height="480"
     id="namedview18"
     showgrid="false"
     inkscape:zoom="2.4842105"
     inkscape:cx="47.5"
     inkscape:cy="47.5"
     inkscape:window-x="0"
     inkscape:window-y="0"
     inkscape:window-maximized="0"
     inkscape:current-layer="svg13" />
  <g
     id="surface1"
     style="fill:#666666">
    <path
       style="stroke:none;fill-rule:nonzero;fill:#666666;fill-opacity:1"
       d="M 30.082031 12.667969 C 20.433594 12.667969 12.667969 20.433594 12.667969 30.082031 C 12.667969 39.730469 20.433594 47.5 30.082031 47.5 C 33.75 47.5 37.148438 46.371094 39.949219 44.449219 L 58.832031 63.332031 L 63.308594 58.855469 L 44.433594 39.972656 C 46.363281 37.167969 47.5 33.761719 47.5 30.082031 C 47.5 20.433594 39.730469 12.667969 30.082031 12.667969 Z M 30.082031 19 C 36.226562 19 41.167969 23.941406 41.167969 30.082031 C 41.167969 36.226562 36.226562 41.167969 30.082031 41.167969 C 23.941406 41.167969 19 36.226562 19 30.082031 C 19 23.941406 23.941406 19 30.082031 19 Z M 17.417969 53.832031 C 14.785156 53.832031 12.667969 55.953125 12.667969 58.582031 C 12.667969 61.214844 14.785156 63.332031 17.417969 63.332031 C 20.046875 63.332031 22.167969 61.214844 22.167969 58.582031 C 22.167969 55.953125 20.046875 53.832031 17.417969 53.832031 Z M 33.25 53.832031 C 30.617188 53.832031 28.5 55.953125 28.5 58.582031 C 28.5 61.214844 30.617188 63.332031 33.25 63.332031 C 35.882812 63.332031 38 61.214844 38 58.582031 C 38 55.953125 35.882812 53.832031 33.25 53.832031 Z M 33.25 53.832031 "
       id="path16" />
  </g>
</svg>
