<?xml version="1.0" encoding="UTF-8" standalone="no"?>
<svg
   xmlns:dc="http://purl.org/dc/elements/1.1/"
   xmlns:cc="http://creativecommons.org/ns#"
   xmlns:rdf="http://www.w3.org/1999/02/22-rdf-syntax-ns#"
   xmlns:svg="http://www.w3.org/2000/svg"
   xmlns="http://www.w3.org/2000/svg"
   xmlns:sodipodi="http://sodipodi.sourceforge.net/DTD/sodipodi-0.dtd"
   xmlns:inkscape="http://www.inkscape.org/namespaces/inkscape"
   width="76pt"
   height="76pt"
   viewBox="0 0 76 76"
   version="1.1"
   id="svg115"
   inkscape:version="0.91 r13725"
   sodipodi:docname="file-zoom-in.svg">
  <metadata
     id="metadata124">
    <rdf:RDF>
      <cc:Work
         rdf:about="">
        <dc:format>image/svg+xml</dc:format>
        <dc:type
           rdf:resource="http://purl.org/dc/dcmitype/StillImage" />
      </cc:Work>
    </rdf:RDF>
  </metadata>
  <defs
     id="defs122" />
  <sodipodi:namedview
     pagecolor="#ffffff"
     bordercolor="#666666"
     borderopacity="1"
     objecttolerance="10"
     gridtolerance="10"
     guidetolerance="10"
     inkscape:pageopacity="0"
     inkscape:pageshadow="2"
     inkscape:window-width="640"
     inkscape:window-height="480"
     id="namedview120"
     showgrid="false"
     inkscape:zoom="2.4842105"
     inkscape:cx="47.5"
     inkscape:cy="47.5"
     inkscape:window-x="0"
     inkscape:window-y="0"
     inkscape:window-maximized="0"
     inkscape:current-layer="svg115" />
  <g
     id="surface1"
     style="fill:#666666">
    <path
       style="stroke:none;fill-rule:nonzero;fill:#666666;fill-opacity:1"
       d="M 31.667969 12.667969 L 19 25.332031 L 19 41.167969 L 25.332031 41.167969 L 25.332031 28.5 L 34.832031 28.5 L 34.832031 19 L 38 19 L 38 12.667969 Z M 44.332031 12.667969 L 49.082031 17.417969 L 41.167969 25.332031 L 47.5 31.667969 L 55.417969 23.75 L 60.167969 28.5 L 60.167969 12.667969 Z M 50.667969 34.832031 L 50.667969 57 L 38 57 L 38 63.332031 L 57 63.332031 L 57 34.832031 Z M 28.5 44.332031 L 20.582031 52.25 L 15.832031 47.5 L 15.832031 63.332031 L 31.667969 63.332031 L 26.917969 58.582031 L 34.832031 50.667969 Z M 28.5 44.332031 "
       id="path118" />
  </g>
</svg>
