<?xml version="1.0" encoding="UTF-8" standalone="no"?>
<svg
   xmlns:dc="http://purl.org/dc/elements/1.1/"
   xmlns:cc="http://creativecommons.org/ns#"
   xmlns:rdf="http://www.w3.org/1999/02/22-rdf-syntax-ns#"
   xmlns:svg="http://www.w3.org/2000/svg"
   xmlns="http://www.w3.org/2000/svg"
   xmlns:sodipodi="http://sodipodi.sourceforge.net/DTD/sodipodi-0.dtd"
   xmlns:inkscape="http://www.inkscape.org/namespaces/inkscape"
   width="76pt"
   height="76pt"
   viewBox="0 0 76 76"
   version="1.1"
   id="svg13"
   inkscape:version="0.91 r13725"
   sodipodi:docname="format-indent-more.svg">
  <metadata
     id="metadata22">
    <rdf:RDF>
      <cc:Work
         rdf:about="">
        <dc:format>image/svg+xml</dc:format>
        <dc:type
           rdf:resource="http://purl.org/dc/dcmitype/StillImage" />
      </cc:Work>
    </rdf:RDF>
  </metadata>
  <defs
     id="defs20" />
  <sodipodi:namedview
     pagecolor="#ffffff"
     bordercolor="#666666"
     borderopacity="1"
     objecttolerance="10"
     gridtolerance="10"
     guidetolerance="10"
     inkscape:pageopacity="0"
     inkscape:pageshadow="2"
     inkscape:window-width="640"
     inkscape:window-height="480"
     id="namedview18"
     showgrid="false"
     inkscape:zoom="2.4842105"
     inkscape:cx="47.5"
     inkscape:cy="47.5"
     inkscape:window-x="0"
     inkscape:window-y="0"
     inkscape:window-maximized="0"
     inkscape:current-layer="svg13" />
  <g
     id="surface1"
     style="fill:#666666">
    <path
       style="stroke:none;fill-rule:nonzero;fill:#666666;fill-opacity:1"
       d="M 12.667969 12.667969 L 12.667969 19 L 63.332031 19 L 63.332031 12.667969 Z M 19 25.332031 L 19 31.667969 L 63.332031 31.667969 L 63.332031 25.332031 Z M 15.832031 31.667969 L 15.832031 50.667969 L 25.332031 41.167969 Z M 28.5 38 L 28.5 44.332031 L 63.332031 44.332031 L 63.332031 38 Z M 50.667969 50.667969 L 50.667969 63.332031 L 63.332031 63.332031 L 63.332031 50.667969 Z M 15.832031 57 C 14.082031 57 12.667969 58.417969 12.667969 60.167969 C 12.667969 61.917969 14.082031 63.332031 15.832031 63.332031 C 17.582031 63.332031 19 61.917969 19 60.167969 C 19 58.417969 17.582031 57 15.832031 57 Z M 28.5 57 C 26.75 57 25.332031 58.417969 25.332031 60.167969 C 25.332031 61.917969 26.75 63.332031 28.5 63.332031 C 30.25 63.332031 31.667969 61.917969 31.667969 60.167969 C 31.667969 58.417969 30.25 57 28.5 57 Z M 41.167969 57 C 39.417969 57 38 58.417969 38 60.167969 C 38 61.917969 39.417969 63.332031 41.167969 63.332031 C 42.917969 63.332031 44.332031 61.917969 44.332031 60.167969 C 44.332031 58.417969 42.917969 57 41.167969 57 Z M 41.167969 57 "
       id="path16" />
  </g>
</svg>
