<?xml version="1.0" encoding="UTF-8" standalone="no"?>
<svg
   xmlns:dc="http://purl.org/dc/elements/1.1/"
   xmlns:cc="http://creativecommons.org/ns#"
   xmlns:rdf="http://www.w3.org/1999/02/22-rdf-syntax-ns#"
   xmlns:svg="http://www.w3.org/2000/svg"
   xmlns="http://www.w3.org/2000/svg"
   xmlns:sodipodi="http://sodipodi.sourceforge.net/DTD/sodipodi-0.dtd"
   xmlns:inkscape="http://www.inkscape.org/namespaces/inkscape"
   width="76pt"
   height="76pt"
   viewBox="0 0 76 76"
   version="1.1"
   id="svg2"
   inkscape:version="0.91 r13725"
   sodipodi:docname="kdenlive-show-audiothumb.svg">
  <metadata
     id="metadata11">
    <rdf:RDF>
      <cc:Work
         rdf:about="">
        <dc:format>image/svg+xml</dc:format>
        <dc:type
           rdf:resource="http://purl.org/dc/dcmitype/StillImage" />
      </cc:Work>
    </rdf:RDF>
  </metadata>
  <defs
     id="defs9" />
  <sodipodi:namedview
     pagecolor="#ffffff"
     bordercolor="#666666"
     borderopacity="1"
     objecttolerance="10"
     gridtolerance="10"
     guidetolerance="10"
     inkscape:pageopacity="0"
     inkscape:pageshadow="2"
     inkscape:window-width="640"
     inkscape:window-height="480"
     id="namedview7"
     showgrid="false"
     inkscape:zoom="2.4842105"
     inkscape:cx="47.5"
     inkscape:cy="47.5"
     inkscape:window-x="0"
     inkscape:window-y="0"
     inkscape:window-maximized="0"
     inkscape:current-layer="svg2" />
  <g
     id="surface1"
     style="fill:#666666">
    <path
       style="stroke:none;fill-rule:evenodd;fill:#666666;fill-opacity:1"
       d="M 38 12.667969 L 31.667969 38 L 38 63.332031 L 41.167969 38 Z M 41.167969 38 L 44.332031 47.5 L 44.332031 28.5 Z M 44.332031 38 L 47.5 41.167969 L 47.5 34.832031 Z M 47.5 38 L 50.667969 41.167969 L 53.832031 38 L 50.667969 34.832031 Z M 53.832031 38 L 57 50.667969 L 57 41.167969 L 63.332031 38 L 57 34.832031 L 57 25.332031 Z M 31.667969 38 L 28.5 25.332031 L 28.5 50.667969 Z M 28.5 38 L 25.332031 15.832031 L 22.167969 34.832031 L 12.667969 38 L 22.167969 41.167969 L 25.332031 60.167969 Z M 28.5 38 "
       id="path5" />
  </g>
</svg>
