<?xml version="1.0" encoding="UTF-8" standalone="no"?>
<svg
   xmlns:dc="http://purl.org/dc/elements/1.1/"
   xmlns:cc="http://creativecommons.org/ns#"
   xmlns:rdf="http://www.w3.org/1999/02/22-rdf-syntax-ns#"
   xmlns:svg="http://www.w3.org/2000/svg"
   xmlns="http://www.w3.org/2000/svg"
   xmlns:sodipodi="http://sodipodi.sourceforge.net/DTD/sodipodi-0.dtd"
   xmlns:inkscape="http://www.inkscape.org/namespaces/inkscape"
   width="76pt"
   height="76pt"
   viewBox="0 0 76 76"
   version="1.1"
   id="svg35"
   inkscape:version="0.91 r13725"
   sodipodi:docname="kdenlive-show-audio.svg">
  <metadata
     id="metadata44">
    <rdf:RDF>
      <cc:Work
         rdf:about="">
        <dc:format>image/svg+xml</dc:format>
        <dc:type
           rdf:resource="http://purl.org/dc/dcmitype/StillImage" />
      </cc:Work>
    </rdf:RDF>
  </metadata>
  <defs
     id="defs42" />
  <sodipodi:namedview
     pagecolor="#ffffff"
     bordercolor="#666666"
     borderopacity="1"
     objecttolerance="10"
     gridtolerance="10"
     guidetolerance="10"
     inkscape:pageopacity="0"
     inkscape:pageshadow="2"
     inkscape:window-width="640"
     inkscape:window-height="480"
     id="namedview40"
     showgrid="false"
     inkscape:zoom="2.4842105"
     inkscape:cx="47.5"
     inkscape:cy="47.5"
     inkscape:window-x="0"
     inkscape:window-y="0"
     inkscape:window-maximized="0"
     inkscape:current-layer="svg35" />
  <g
     id="surface1"
     style="fill:#666666">
    <path
       style="stroke:none;fill-rule:nonzero;fill:#666666;fill-opacity:1"
       d="M 41.480469 12.667969 C 39.113281 12.667969 31.042969 18.527344 26.113281 25.265625 L 22.167969 28.5 L 22.167969 47.5 L 26.113281 50.734375 C 31.042969 57.472656 39.113281 63.332031 41.480469 63.332031 Z M 55.90625 20.09375 L 53.667969 22.332031 C 57.824219 26.488281 60.164062 32.121094 60.167969 38 C 60.164062 43.878906 57.824219 49.511719 53.667969 53.667969 L 55.90625 55.90625 C 60.660156 51.160156 63.332031 44.71875 63.332031 38 C 63.332031 31.28125 60.660156 24.839844 55.90625 20.09375 Z M 51.425781 24.574219 L 49.1875 26.8125 C 52.15625 29.777344 53.832031 33.804688 53.832031 38 C 53.832031 42.195312 52.15625 46.222656 49.1875 49.1875 L 51.425781 51.425781 C 54.992188 47.867188 56.996094 43.039062 57 38 C 56.996094 32.960938 54.992188 28.132812 51.425781 24.574219 Z M 19 28.5 C 15.832031 28.5 12.667969 31.667969 12.667969 31.667969 L 12.667969 44.332031 C 12.667969 44.332031 15.832031 47.5 19 47.5 Z M 46.949219 29.050781 L 44.710938 31.289062 C 46.492188 33.066406 47.496094 35.484375 47.5 38 C 47.496094 40.515625 46.492188 42.933594 44.710938 44.710938 L 46.949219 46.949219 C 49.324219 44.578125 50.664062 41.359375 50.667969 38 C 50.664062 34.640625 49.324219 31.421875 46.949219 29.050781 Z M 46.949219 29.050781 "
       id="path38" />
  </g>
</svg>
