<?xml version="1.0" encoding="UTF-8" standalone="no"?>
<svg
   xmlns:dc="http://purl.org/dc/elements/1.1/"
   xmlns:cc="http://creativecommons.org/ns#"
   xmlns:rdf="http://www.w3.org/1999/02/22-rdf-syntax-ns#"
   xmlns:svg="http://www.w3.org/2000/svg"
   xmlns="http://www.w3.org/2000/svg"
   xmlns:sodipodi="http://sodipodi.sourceforge.net/DTD/sodipodi-0.dtd"
   xmlns:inkscape="http://www.inkscape.org/namespaces/inkscape"
   width="76pt"
   height="76pt"
   viewBox="0 0 76 76"
   version="1.1"
   id="svg35"
   inkscape:version="0.91 r13725"
   sodipodi:docname="kdenlive-split-audio.svg">
  <metadata
     id="metadata44">
    <rdf:RDF>
      <cc:Work
         rdf:about="">
        <dc:format>image/svg+xml</dc:format>
        <dc:type
           rdf:resource="http://purl.org/dc/dcmitype/StillImage" />
      </cc:Work>
    </rdf:RDF>
  </metadata>
  <defs
     id="defs42" />
  <sodipodi:namedview
     pagecolor="#ffffff"
     bordercolor="#666666"
     borderopacity="1"
     objecttolerance="10"
     gridtolerance="10"
     guidetolerance="10"
     inkscape:pageopacity="0"
     inkscape:pageshadow="2"
     inkscape:window-width="640"
     inkscape:window-height="480"
     id="namedview40"
     showgrid="false"
     inkscape:zoom="2.4842105"
     inkscape:cx="47.5"
     inkscape:cy="47.5"
     inkscape:window-x="0"
     inkscape:window-y="0"
     inkscape:window-maximized="0"
     inkscape:current-layer="svg35" />
  <g
     id="surface1"
     style="fill:#666666">
    <path
       style="stroke:none;fill-rule:nonzero;fill:#666666;fill-opacity:1"
       d="M 41.480469 12.667969 C 39.113281 12.667969 31.042969 18.527344 26.113281 25.265625 L 22.167969 28.5 L 22.167969 34.832031 L 41.480469 34.832031 Z M 55.90625 20.09375 L 53.667969 22.332031 C 57.039062 25.71875 59.230469 30.101562 59.90625 34.832031 L 63.105469 34.832031 C 62.40625 29.257812 59.871094 24.074219 55.90625 20.09375 Z M 51.425781 24.574219 L 49.1875 26.8125 C 51.382812 29.003906 52.878906 31.792969 53.5 34.832031 L 56.710938 34.832031 C 56.054688 30.949219 54.210938 27.363281 51.425781 24.574219 Z M 19 28.5 C 15.832031 28.5 12.667969 31.667969 12.667969 31.667969 L 12.667969 34.832031 L 19 34.832031 Z M 46.949219 29.050781 L 44.710938 31.289062 C 45.707031 32.292969 46.46875 33.5 46.9375 34.832031 L 50.246094 34.832031 C 49.683594 32.648438 48.546875 30.648438 46.949219 29.050781 Z M 12.667969 41.167969 L 12.667969 44.332031 C 12.667969 44.332031 15.832031 47.5 19 47.5 L 19 41.167969 Z M 22.167969 41.167969 L 22.167969 47.5 L 26.113281 50.734375 C 31.042969 57.472656 39.113281 63.332031 41.480469 63.332031 L 41.480469 41.167969 Z M 46.945312 41.167969 C 46.472656 42.5 45.710938 43.707031 44.710938 44.710938 L 46.949219 46.949219 C 48.546875 45.351562 49.683594 43.351562 50.246094 41.167969 Z M 53.503906 41.167969 C 52.882812 44.207031 51.382812 46.996094 49.1875 49.1875 L 51.425781 51.425781 C 54.210938 48.636719 56.058594 45.054688 56.714844 41.167969 Z M 59.914062 41.167969 C 59.234375 45.898438 57.042969 50.28125 53.667969 53.667969 L 55.90625 55.90625 C 59.871094 51.925781 62.402344 46.742188 63.097656 41.167969 Z M 59.914062 41.167969 "
       id="path38" />
  </g>
</svg>
