<?xml version="1.0" encoding="UTF-8" standalone="no"?>
<svg
   xmlns:dc="http://purl.org/dc/elements/1.1/"
   xmlns:cc="http://creativecommons.org/ns#"
   xmlns:rdf="http://www.w3.org/1999/02/22-rdf-syntax-ns#"
   xmlns:svg="http://www.w3.org/2000/svg"
   xmlns="http://www.w3.org/2000/svg"
   xmlns:sodipodi="http://sodipodi.sourceforge.net/DTD/sodipodi-0.dtd"
   xmlns:inkscape="http://www.inkscape.org/namespaces/inkscape"
   width="76pt"
   height="76pt"
   viewBox="0 0 76 76"
   version="1.1"
   id="svg79"
   inkscape:version="0.91 r13725"
   sodipodi:docname="layer-visible-on.svg">
  <metadata
     id="metadata88">
    <rdf:RDF>
      <cc:Work
         rdf:about="">
        <dc:format>image/svg+xml</dc:format>
        <dc:type
           rdf:resource="http://purl.org/dc/dcmitype/StillImage" />
      </cc:Work>
    </rdf:RDF>
  </metadata>
  <defs
     id="defs86" />
  <sodipodi:namedview
     pagecolor="#ffffff"
     bordercolor="#666666"
     borderopacity="1"
     objecttolerance="10"
     gridtolerance="10"
     guidetolerance="10"
     inkscape:pageopacity="0"
     inkscape:pageshadow="2"
     inkscape:window-width="640"
     inkscape:window-height="480"
     id="namedview84"
     showgrid="false"
     inkscape:zoom="2.4842105"
     inkscape:cx="47.5"
     inkscape:cy="47.5"
     inkscape:window-x="0"
     inkscape:window-y="0"
     inkscape:window-maximized="0"
     inkscape:current-layer="svg79" />
  <g
     id="surface1"
     style="fill:#666666">
    <path
       style="stroke:none;fill-rule:nonzero;fill:#666666;fill-opacity:1"
       d="M 38 22.167969 C 27.175781 22.183594 17.292969 28.328125 12.492188 38.03125 C 17.3125 47.710938 27.1875 53.832031 38 53.832031 C 48.824219 53.816406 58.707031 47.671875 63.507812 37.96875 C 58.6875 28.289062 48.8125 22.167969 38 22.167969 Z M 38 28.5 C 43.246094 28.5 47.5 32.753906 47.5 38 C 47.5 40.953125 46.125 43.738281 43.78125 45.53125 C 42.769531 40.957031 40.5 38.007812 38 38 C 35.5 38.003906 33.230469 40.953125 32.21875 45.527344 C 29.875 43.730469 28.503906 40.949219 28.5 38 C 28.5 32.753906 32.753906 28.5 38 28.5 Z M 38 28.5 "
       id="path82" />
  </g>
</svg>
