<?xml version="1.0" encoding="UTF-8" standalone="no"?>
<svg
   xmlns:dc="http://purl.org/dc/elements/1.1/"
   xmlns:cc="http://creativecommons.org/ns#"
   xmlns:rdf="http://www.w3.org/1999/02/22-rdf-syntax-ns#"
   xmlns:svg="http://www.w3.org/2000/svg"
   xmlns="http://www.w3.org/2000/svg"
   xmlns:sodipodi="http://sodipodi.sourceforge.net/DTD/sodipodi-0.dtd"
   xmlns:inkscape="http://www.inkscape.org/namespaces/inkscape"
   width="76pt"
   height="76pt"
   viewBox="0 0 76 76"
   version="1.1"
   id="svg68"
   inkscape:version="0.91 r13725"
   sodipodi:docname="layer-visible-off.svg">
  <metadata
     id="metadata77">
    <rdf:RDF>
      <cc:Work
         rdf:about="">
        <dc:format>image/svg+xml</dc:format>
        <dc:type
           rdf:resource="http://purl.org/dc/dcmitype/StillImage" />
      </cc:Work>
    </rdf:RDF>
  </metadata>
  <defs
     id="defs75" />
  <sodipodi:namedview
     pagecolor="#ffffff"
     bordercolor="#666666"
     borderopacity="1"
     objecttolerance="10"
     gridtolerance="10"
     guidetolerance="10"
     inkscape:pageopacity="0"
     inkscape:pageshadow="2"
     inkscape:window-width="640"
     inkscape:window-height="480"
     id="namedview73"
     showgrid="false"
     inkscape:zoom="2.4842105"
     inkscape:cx="47.5"
     inkscape:cy="47.5"
     inkscape:window-x="0"
     inkscape:window-y="0"
     inkscape:window-maximized="0"
     inkscape:current-layer="svg68" />
  <g
     id="surface1"
     style="fill:#666666">
    <path
       style="stroke:none;fill-rule:nonzero;fill:#666666;fill-opacity:1"
       d="M 48.972656 12.667969 L 21.546875 60.167969 L 27.027344 63.332031 L 54.453125 15.832031 Z M 38 22.167969 C 27.175781 22.183594 17.292969 28.328125 12.492188 38.03125 C 15.089844 43.238281 19.214844 47.527344 24.320312 50.320312 L 29.28125 41.753906 C 28.765625 40.570312 28.503906 39.292969 28.5 38 C 28.507812 33.179688 32.121094 29.128906 36.910156 28.574219 L 40.542969 22.304688 C 39.699219 22.21875 38.851562 22.171875 38 22.167969 Z M 51.738281 25.710938 L 46.75 34.320312 C 47.242188 35.484375 47.496094 36.734375 47.5 38 C 47.5 40.953125 46.125 43.738281 43.78125 45.53125 C 43.464844 44.109375 43.019531 42.816406 42.464844 41.71875 L 35.527344 53.703125 C 36.347656 53.785156 37.175781 53.828125 38 53.832031 C 48.824219 53.816406 58.707031 47.671875 63.507812 37.96875 C 60.921875 32.78125 56.816406 28.507812 51.738281 25.710938 Z M 51.738281 25.710938 "
       id="path71" />
  </g>
</svg>
