<?xml version="1.0" encoding="UTF-8" standalone="no"?>
<svg
   xmlns:dc="http://purl.org/dc/elements/1.1/"
   xmlns:cc="http://creativecommons.org/ns#"
   xmlns:rdf="http://www.w3.org/1999/02/22-rdf-syntax-ns#"
   xmlns:svg="http://www.w3.org/2000/svg"
   xmlns="http://www.w3.org/2000/svg"
   xmlns:sodipodi="http://sodipodi.sourceforge.net/DTD/sodipodi-0.dtd"
   xmlns:inkscape="http://www.inkscape.org/namespaces/inkscape"
   width="76pt"
   height="76pt"
   viewBox="0 0 76 76"
   version="1.1"
   id="svg15"
   inkscape:version="0.91 r13725"
   sodipodi:docname="mail-reply-all.svg">
  <metadata
     id="metadata26">
    <rdf:RDF>
      <cc:Work
         rdf:about="">
        <dc:format>image/svg+xml</dc:format>
        <dc:type
           rdf:resource="http://purl.org/dc/dcmitype/StillImage" />
      </cc:Work>
    </rdf:RDF>
  </metadata>
  <defs
     id="defs24" />
  <sodipodi:namedview
     pagecolor="#ffffff"
     bordercolor="#666666"
     borderopacity="1"
     objecttolerance="10"
     gridtolerance="10"
     guidetolerance="10"
     inkscape:pageopacity="0"
     inkscape:pageshadow="2"
     inkscape:window-width="640"
     inkscape:window-height="480"
     id="namedview22"
     showgrid="false"
     inkscape:zoom="2.4842105"
     inkscape:cx="47.5"
     inkscape:cy="47.5"
     inkscape:window-x="0"
     inkscape:window-y="0"
     inkscape:window-maximized="0"
     inkscape:current-layer="svg15" />
  <g
     id="surface1"
     style="fill:#666666">
    <path
       style="stroke:none;fill-rule:nonzero;fill:#666666;fill-opacity:1"
       d="M 12.667969 19 L 12.667969 57 L 38 57 L 38 50.667969 L 19 50.667969 L 19 23.921875 L 38 41.167969 L 57 23.921875 L 57 38 L 63.332031 38 L 63.332031 19 Z M 12.667969 19 "
       id="path18" />
    <path
       style="stroke:none;fill-rule:nonzero;fill:#666666;fill-opacity:1"
       d="M 55.25 41.167969 C 52.820312 41.167969 50.386719 42.09375 48.527344 43.957031 C 44.804688 47.675781 44.804688 53.675781 48.527344 57.394531 L 51.304688 60.167969 L 47.5 60.167969 L 47.5 63.332031 L 57 63.332031 L 57 53.832031 L 53.832031 53.832031 L 53.832031 58.21875 L 50.773438 55.152344 C 48.292969 52.671875 48.292969 48.675781 50.773438 46.195312 C 53.253906 43.714844 57.246094 43.714844 59.726562 46.195312 L 60.601562 47.066406 L 62.839844 44.828125 L 61.964844 43.957031 C 60.105469 42.09375 57.675781 41.167969 55.25 41.167969 Z M 55.25 41.167969 "
       id="path20" />
  </g>
</svg>
