<?xml version="1.0" encoding="UTF-8" standalone="no"?>
<svg
   xmlns:dc="http://purl.org/dc/elements/1.1/"
   xmlns:cc="http://creativecommons.org/ns#"
   xmlns:rdf="http://www.w3.org/1999/02/22-rdf-syntax-ns#"
   xmlns:svg="http://www.w3.org/2000/svg"
   xmlns="http://www.w3.org/2000/svg"
   xmlns:sodipodi="http://sodipodi.sourceforge.net/DTD/sodipodi-0.dtd"
   xmlns:inkscape="http://www.inkscape.org/namespaces/inkscape"
   width="76pt"
   height="76pt"
   viewBox="0 0 76 76"
   version="1.1"
   id="svg48"
   inkscape:version="0.91 r13725"
   sodipodi:docname="mail-message-new.svg">
  <metadata
     id="metadata57">
    <rdf:RDF>
      <cc:Work
         rdf:about="">
        <dc:format>image/svg+xml</dc:format>
        <dc:type
           rdf:resource="http://purl.org/dc/dcmitype/StillImage" />
      </cc:Work>
    </rdf:RDF>
  </metadata>
  <defs
     id="defs55" />
  <sodipodi:namedview
     pagecolor="#ffffff"
     bordercolor="#666666"
     borderopacity="1"
     objecttolerance="10"
     gridtolerance="10"
     guidetolerance="10"
     inkscape:pageopacity="0"
     inkscape:pageshadow="2"
     inkscape:window-width="640"
     inkscape:window-height="480"
     id="namedview53"
     showgrid="false"
     inkscape:zoom="2.4842105"
     inkscape:cx="47.5"
     inkscape:cy="47.5"
     inkscape:window-x="0"
     inkscape:window-y="0"
     inkscape:window-maximized="0"
     inkscape:current-layer="svg48" />
  <g
     id="surface1"
     style="fill:#666666">
    <path
       style="stroke:none;fill-rule:nonzero;fill:#666666;fill-opacity:1"
       d="M 12.667969 19 L 12.667969 57 L 38 57 L 38 50.667969 L 19 50.667969 L 19 23.921875 L 38 41.167969 L 57 23.921875 L 57 38 L 63.332031 38 L 63.332031 19 Z M 52.25 41.167969 L 50.328125 47.226562 L 45.015625 43.839844 L 47.375 49.738281 L 41.167969 50.609375 L 46.707031 53.585938 L 42.503906 58.3125 L 48.632812 56.96875 L 48.402344 63.332031 L 52.25 58.3125 L 56.097656 63.332031 L 55.867188 56.96875 L 61.996094 58.3125 L 57.792969 53.585938 L 63.332031 50.609375 L 57.125 49.738281 L 59.488281 43.839844 L 54.171875 47.226562 Z M 52.25 41.167969 "
       id="path51" />
  </g>
</svg>
