<?xml version="1.0" encoding="UTF-8" standalone="no"?>
<svg
   xmlns:dc="http://purl.org/dc/elements/1.1/"
   xmlns:cc="http://creativecommons.org/ns#"
   xmlns:rdf="http://www.w3.org/1999/02/22-rdf-syntax-ns#"
   xmlns:svg="http://www.w3.org/2000/svg"
   xmlns="http://www.w3.org/2000/svg"
   xmlns:sodipodi="http://sodipodi.sourceforge.net/DTD/sodipodi-0.dtd"
   xmlns:inkscape="http://www.inkscape.org/namespaces/inkscape"
   width="76pt"
   height="76pt"
   viewBox="0 0 76 76"
   version="1.1"
   id="svg13"
   inkscape:version="0.91 r13725"
   sodipodi:docname="mail-attachment.svg">
  <metadata
     id="metadata22">
    <rdf:RDF>
      <cc:Work
         rdf:about="">
        <dc:format>image/svg+xml</dc:format>
        <dc:type
           rdf:resource="http://purl.org/dc/dcmitype/StillImage" />
      </cc:Work>
    </rdf:RDF>
  </metadata>
  <defs
     id="defs20" />
  <sodipodi:namedview
     pagecolor="#ffffff"
     bordercolor="#666666"
     borderopacity="1"
     objecttolerance="10"
     gridtolerance="10"
     guidetolerance="10"
     inkscape:pageopacity="0"
     inkscape:pageshadow="2"
     inkscape:window-width="640"
     inkscape:window-height="480"
     id="namedview18"
     showgrid="false"
     inkscape:zoom="2.4842105"
     inkscape:cx="47.5"
     inkscape:cy="47.5"
     inkscape:window-x="0"
     inkscape:window-y="0"
     inkscape:window-maximized="0"
     inkscape:current-layer="svg13" />
  <g
     id="surface1"
     style="fill:#666666">
    <path
       style="stroke:none;fill-rule:nonzero;fill:#666666;fill-opacity:1"
       d="M 38 12.667969 C 27.472656 12.667969 19 21.140625 19 31.667969 L 19 44.332031 C 19 54.859375 27.472656 63.332031 38 63.332031 C 48.527344 63.332031 57 54.859375 57 44.332031 L 57 38 L 50.667969 38 L 50.667969 44.332031 C 50.667969 51.351562 45.015625 57 38 57 C 30.984375 57 25.332031 51.351562 25.332031 44.332031 L 25.332031 31.667969 C 25.332031 24.648438 30.984375 19 38 19 C 39.753906 19 41.167969 20.414062 41.167969 22.167969 L 41.167969 44.332031 C 41.167969 46.085938 39.753906 47.5 38 47.5 C 36.246094 47.5 34.832031 46.085938 34.832031 44.332031 L 34.832031 34.832031 L 28.5 34.832031 L 28.5 44.332031 C 28.5 49.597656 32.738281 53.832031 38 53.832031 C 43.261719 53.832031 47.5 49.597656 47.5 44.332031 L 47.5 22.167969 C 47.5 16.902344 43.261719 12.667969 38 12.667969 Z M 38 12.667969 "
       id="path16" />
  </g>
</svg>
