<?xml version="1.0" encoding="UTF-8" standalone="no"?>
<svg
   xmlns:dc="http://purl.org/dc/elements/1.1/"
   xmlns:cc="http://creativecommons.org/ns#"
   xmlns:rdf="http://www.w3.org/1999/02/22-rdf-syntax-ns#"
   xmlns:svg="http://www.w3.org/2000/svg"
   xmlns="http://www.w3.org/2000/svg"
   xmlns:sodipodi="http://sodipodi.sourceforge.net/DTD/sodipodi-0.dtd"
   xmlns:inkscape="http://www.inkscape.org/namespaces/inkscape"
   width="76pt"
   height="76pt"
   viewBox="0 0 76 76"
   version="1.1"
   id="svg2"
   inkscape:version="0.91 r13725"
   sodipodi:docname="mail-mark-junk.svg">
  <metadata
     id="metadata13">
    <rdf:RDF>
      <cc:Work
         rdf:about="">
        <dc:format>image/svg+xml</dc:format>
        <dc:type
           rdf:resource="http://purl.org/dc/dcmitype/StillImage" />
      </cc:Work>
    </rdf:RDF>
  </metadata>
  <defs
     id="defs11" />
  <sodipodi:namedview
     pagecolor="#ffffff"
     bordercolor="#666666"
     borderopacity="1"
     objecttolerance="10"
     gridtolerance="10"
     guidetolerance="10"
     inkscape:pageopacity="0"
     inkscape:pageshadow="2"
     inkscape:window-width="640"
     inkscape:window-height="480"
     id="namedview9"
     showgrid="false"
     inkscape:zoom="2.4842105"
     inkscape:cx="47.5"
     inkscape:cy="47.5"
     inkscape:window-x="0"
     inkscape:window-y="0"
     inkscape:window-maximized="0"
     inkscape:current-layer="svg2" />
  <path
     inkscape:connector-curvature="0"
     id="path5"
     d="m 12.667969,19 0,38 L 38,57 l 0,-6.332031 -19,0 L 19,23.921875 38,41.167969 57,23.921875 57,38 l 6.332031,0 0,-19 z m 0,0"
     style="fill:#666666;fill-opacity:1;fill-rule:nonzero;stroke:none" />
  <path
     inkscape:connector-curvature="0"
     id="path7"
     d="m 52.25,41.167969 c -6.121094,0 -11.082031,4.960937 -11.082031,11.082031 0,6.121094 4.960937,11.082031 11.082031,11.082031 6.121094,0 11.082031,-4.960937 11.082031,-11.082031 0,-6.121094 -4.960937,-11.082031 -11.082031,-11.082031 z m 0,3.164062 c 1.550781,0.0039 3.066406,0.460938 4.359375,1.320313 L 45.652344,56.609375 C 44.792969,55.316406 44.335938,53.800781 44.332031,52.25 c 0,-4.371094 3.546875,-7.917969 7.917969,-7.917969 z m 6.597656,3.558594 c 0.859375,1.292969 1.316406,2.808594 1.320313,4.359375 0,4.371094 -3.546875,7.917969 -7.917969,7.917969 -1.550781,-0.0039 -3.066406,-0.460938 -4.359375,-1.320313 z m 0,0"
     style="fill:#e64a3a;fill-opacity:1;fill-rule:nonzero;stroke:none" />
</svg>
