<?xml version="1.0" encoding="UTF-8" standalone="no"?>
<svg
   xmlns:dc="http://purl.org/dc/elements/1.1/"
   xmlns:cc="http://creativecommons.org/ns#"
   xmlns:rdf="http://www.w3.org/1999/02/22-rdf-syntax-ns#"
   xmlns:svg="http://www.w3.org/2000/svg"
   xmlns="http://www.w3.org/2000/svg"
   xmlns:sodipodi="http://sodipodi.sourceforge.net/DTD/sodipodi-0.dtd"
   xmlns:inkscape="http://www.inkscape.org/namespaces/inkscape"
   width="76pt"
   height="76pt"
   viewBox="0 0 76 76"
   version="1.1"
   id="svg123"
   inkscape:version="0.91 r13725"
   sodipodi:docname="media-seek-backward.svg">
  <metadata
     id="metadata132">
    <rdf:RDF>
      <cc:Work
         rdf:about="">
        <dc:format>image/svg+xml</dc:format>
        <dc:type
           rdf:resource="http://purl.org/dc/dcmitype/StillImage" />
      </cc:Work>
    </rdf:RDF>
  </metadata>
  <defs
     id="defs130" />
  <sodipodi:namedview
     pagecolor="#ffffff"
     bordercolor="#666666"
     borderopacity="1"
     objecttolerance="10"
     gridtolerance="10"
     guidetolerance="10"
     inkscape:pageopacity="0"
     inkscape:pageshadow="2"
     inkscape:window-width="640"
     inkscape:window-height="480"
     id="namedview128"
     showgrid="false"
     inkscape:zoom="2.4842105"
     inkscape:cx="47.5"
     inkscape:cy="47.5"
     inkscape:window-x="0"
     inkscape:window-y="0"
     inkscape:window-maximized="0"
     inkscape:current-layer="svg123" />
  <g
     id="surface1"
     style="fill:#666666">
    <path
       style="stroke:none;fill-rule:nonzero;fill:#666666;fill-opacity:1"
       d="M 38 12.667969 C 24.007812 12.667969 12.667969 24.007812 12.667969 38 C 12.667969 51.988281 24.007812 63.332031 38 63.332031 C 51.988281 63.332031 63.332031 51.988281 63.332031 38 C 63.332031 24.007812 51.988281 12.667969 38 12.667969 Z M 38 19 C 48.492188 19 57 27.507812 57 38 C 57 48.492188 48.492188 57 38 57 C 27.507812 57 19 48.492188 19 38 C 19 27.507812 27.507812 19 38 19 Z M 47.5 28.5 L 33.25 38 L 47.5 47.5 Z M 28.5 31.667969 L 28.5 44.332031 L 31.667969 44.332031 L 31.667969 31.667969 Z M 28.5 31.667969 "
       id="path126" />
  </g>
</svg>
