<?xml version="1.0" encoding="UTF-8" standalone="no"?>
<svg
   xmlns:dc="http://purl.org/dc/elements/1.1/"
   xmlns:cc="http://creativecommons.org/ns#"
   xmlns:rdf="http://www.w3.org/1999/02/22-rdf-syntax-ns#"
   xmlns:svg="http://www.w3.org/2000/svg"
   xmlns="http://www.w3.org/2000/svg"
   xmlns:sodipodi="http://sodipodi.sourceforge.net/DTD/sodipodi-0.dtd"
   xmlns:inkscape="http://www.inkscape.org/namespaces/inkscape"
   width="76pt"
   height="76pt"
   viewBox="0 0 76 76"
   version="1.1"
   id="svg24"
   inkscape:version="0.91 r13725"
   sodipodi:docname="media-optical-copy.svg">
  <metadata
     id="metadata33">
    <rdf:RDF>
      <cc:Work
         rdf:about="">
        <dc:format>image/svg+xml</dc:format>
        <dc:type
           rdf:resource="http://purl.org/dc/dcmitype/StillImage" />
      </cc:Work>
    </rdf:RDF>
  </metadata>
  <defs
     id="defs31" />
  <sodipodi:namedview
     pagecolor="#ffffff"
     bordercolor="#666666"
     borderopacity="1"
     objecttolerance="10"
     gridtolerance="10"
     guidetolerance="10"
     inkscape:pageopacity="0"
     inkscape:pageshadow="2"
     inkscape:window-width="640"
     inkscape:window-height="480"
     id="namedview29"
     showgrid="false"
     inkscape:zoom="2.4842105"
     inkscape:cx="47.5"
     inkscape:cy="47.5"
     inkscape:window-x="0"
     inkscape:window-y="0"
     inkscape:window-maximized="0"
     inkscape:current-layer="svg24" />
  <g
     id="surface1"
     style="fill:#666666">
    <path
       style="stroke:none;fill-rule:nonzero;fill:#666666;fill-opacity:1"
       d="M 38 12.667969 C 24.007812 12.667969 12.667969 24.007812 12.667969 38 C 12.667969 51.988281 24.007812 63.332031 38 63.332031 L 38 57 C 27.507812 57 19 48.492188 19 38 C 19 37.34375 19.035156 36.699219 19.097656 36.058594 C 20.074219 26.476562 28.164062 19 38 19 C 48.492188 19 57 27.507812 57 38 L 63.332031 38 C 63.332031 24.007812 51.988281 12.667969 38 12.667969 Z M 38 28.5 C 33.40625 28.5 29.578125 31.753906 28.691406 36.082031 C 28.566406 36.703125 28.5 37.34375 28.5 38 C 28.5 43.246094 32.753906 47.5 38 47.5 L 38 41.167969 C 36.25 41.167969 34.832031 39.75 34.832031 38 C 34.832031 37.5625 34.921875 37.148438 35.082031 36.769531 C 35.558594 35.632812 36.6875 34.832031 38 34.832031 C 39.75 34.832031 41.167969 36.25 41.167969 38 L 47.5 38 C 47.5 32.753906 43.246094 28.5 38 28.5 Z M 52.25 41.167969 C 46.128906 41.167969 41.167969 46.128906 41.167969 52.25 C 41.167969 58.371094 46.128906 63.332031 52.25 63.332031 C 58.371094 63.332031 63.332031 58.371094 63.332031 52.25 C 63.332031 46.128906 58.371094 41.167969 52.25 41.167969 Z M 52.25 44.332031 C 56.621094 44.332031 60.167969 47.878906 60.167969 52.25 C 60.167969 56.621094 56.621094 60.167969 52.25 60.167969 C 47.878906 60.167969 44.332031 56.621094 44.332031 52.25 C 44.332031 47.878906 47.878906 44.332031 52.25 44.332031 Z M 52.25 47.5 C 49.628906 47.5 47.5 49.628906 47.5 52.25 C 47.5 54.871094 49.628906 57 52.25 57 C 54.871094 57 57 54.871094 57 52.25 C 57 49.628906 54.871094 47.5 52.25 47.5 Z M 52.25 50.667969 C 53.125 50.667969 53.832031 51.375 53.832031 52.25 C 53.832031 53.125 53.125 53.832031 52.25 53.832031 C 51.375 53.832031 50.667969 53.125 50.667969 52.25 C 50.667969 51.375 51.375 50.667969 52.25 50.667969 Z M 52.25 50.667969 "
       id="path27" />
  </g>
</svg>
