<?xml version="1.0" encoding="UTF-8" standalone="no"?>
<svg
   xmlns:dc="http://purl.org/dc/elements/1.1/"
   xmlns:cc="http://creativecommons.org/ns#"
   xmlns:rdf="http://www.w3.org/1999/02/22-rdf-syntax-ns#"
   xmlns:svg="http://www.w3.org/2000/svg"
   xmlns="http://www.w3.org/2000/svg"
   xmlns:sodipodi="http://sodipodi.sourceforge.net/DTD/sodipodi-0.dtd"
   xmlns:inkscape="http://www.inkscape.org/namespaces/inkscape"
   width="76pt"
   height="76pt"
   viewBox="0 0 76 76"
   version="1.1"
   id="svg233"
   inkscape:version="0.91 r13725"
   sodipodi:docname="object-rotate-left.svg">
  <metadata
     id="metadata242">
    <rdf:RDF>
      <cc:Work
         rdf:about="">
        <dc:format>image/svg+xml</dc:format>
        <dc:type
           rdf:resource="http://purl.org/dc/dcmitype/StillImage" />
      </cc:Work>
    </rdf:RDF>
  </metadata>
  <defs
     id="defs240" />
  <sodipodi:namedview
     pagecolor="#ffffff"
     bordercolor="#666666"
     borderopacity="1"
     objecttolerance="10"
     gridtolerance="10"
     guidetolerance="10"
     inkscape:pageopacity="0"
     inkscape:pageshadow="2"
     inkscape:window-width="640"
     inkscape:window-height="480"
     id="namedview238"
     showgrid="false"
     inkscape:zoom="2.4842105"
     inkscape:cx="47.499999"
     inkscape:cy="47.499999"
     inkscape:window-x="0"
     inkscape:window-y="0"
     inkscape:window-maximized="0"
     inkscape:current-layer="svg233" />
  <g
     id="surface1"
     style="fill:#666666">
    <path
       style="stroke:none;fill-rule:nonzero;fill:#666666;fill-opacity:1"
       d="M 12.667969 12.667969 L 12.667969 31.667969 L 31.667969 31.667969 L 31.667969 25.332031 L 23.847656 25.332031 C 27.320312 21.453125 32.355469 19 38 19 C 48.527344 19 57 27.472656 57 38 C 57 48.527344 48.527344 57 38 57 L 38 63.332031 C 52.035156 63.332031 63.332031 52.035156 63.332031 38 C 63.332031 23.964844 52.035156 12.667969 38 12.667969 C 30.386719 12.667969 23.632812 16.035156 19 21.320312 L 19 12.667969 Z M 38 34.832031 C 36.25 34.832031 34.832031 36.25 34.832031 38 C 34.832031 39.75 36.25 41.167969 38 41.167969 C 39.75 41.167969 41.167969 39.75 41.167969 38 C 41.167969 36.25 39.75 34.832031 38 34.832031 Z M 38 34.832031 "
       id="path236" />
  </g>
</svg>
