<?xml version="1.0" encoding="UTF-8" standalone="no"?>
<svg
   xmlns:dc="http://purl.org/dc/elements/1.1/"
   xmlns:cc="http://creativecommons.org/ns#"
   xmlns:rdf="http://www.w3.org/1999/02/22-rdf-syntax-ns#"
   xmlns:svg="http://www.w3.org/2000/svg"
   xmlns="http://www.w3.org/2000/svg"
   xmlns:sodipodi="http://sodipodi.sourceforge.net/DTD/sodipodi-0.dtd"
   xmlns:inkscape="http://www.inkscape.org/namespaces/inkscape"
   width="76pt"
   height="76pt"
   viewBox="0 0 76 76"
   version="1.1"
   id="svg178"
   inkscape:version="0.91 r13725"
   sodipodi:docname="object-group.svg">
  <metadata
     id="metadata187">
    <rdf:RDF>
      <cc:Work
         rdf:about="">
        <dc:format>image/svg+xml</dc:format>
        <dc:type
           rdf:resource="http://purl.org/dc/dcmitype/StillImage" />
      </cc:Work>
    </rdf:RDF>
  </metadata>
  <defs
     id="defs185" />
  <sodipodi:namedview
     pagecolor="#ffffff"
     bordercolor="#666666"
     borderopacity="1"
     objecttolerance="10"
     gridtolerance="10"
     guidetolerance="10"
     inkscape:pageopacity="0"
     inkscape:pageshadow="2"
     inkscape:window-width="640"
     inkscape:window-height="480"
     id="namedview183"
     showgrid="false"
     inkscape:zoom="2.4842105"
     inkscape:cx="47.5"
     inkscape:cy="47.5"
     inkscape:window-x="0"
     inkscape:window-y="0"
     inkscape:window-maximized="0"
     inkscape:current-layer="svg178" />
  <g
     id="surface1"
     style="fill:#666666">
    <path
       style="stroke:none;fill-rule:nonzero;fill:#666666;fill-opacity:1"
       d="M 12.667969 12.667969 L 12.667969 44.332031 L 22.167969 44.332031 L 22.167969 53.832031 L 31.667969 53.832031 L 31.667969 63.332031 L 63.332031 63.332031 L 63.332031 31.667969 L 53.832031 31.667969 L 53.832031 22.167969 L 44.332031 22.167969 L 44.332031 12.667969 Z M 19 19 L 38 19 L 38 22.167969 L 22.167969 22.167969 L 22.167969 38 L 19 38 Z M 28.5 28.5 L 47.5 28.5 L 47.5 31.667969 L 31.667969 31.667969 L 31.667969 47.5 L 28.5 47.5 Z M 38 38 L 57 38 L 57 57 L 38 57 Z M 38 38 "
       id="path181" />
  </g>
</svg>
