<?xml version="1.0" encoding="UTF-8" standalone="no"?>
<svg
   xmlns:dc="http://purl.org/dc/elements/1.1/"
   xmlns:cc="http://creativecommons.org/ns#"
   xmlns:rdf="http://www.w3.org/1999/02/22-rdf-syntax-ns#"
   xmlns:svg="http://www.w3.org/2000/svg"
   xmlns="http://www.w3.org/2000/svg"
   xmlns:sodipodi="http://sodipodi.sourceforge.net/DTD/sodipodi-0.dtd"
   xmlns:inkscape="http://www.inkscape.org/namespaces/inkscape"
   width="76pt"
   height="76pt"
   viewBox="0 0 76 76"
   version="1.1"
   id="svg244"
   inkscape:version="0.91 r13725"
   sodipodi:docname="object-rotate-right.svg">
  <metadata
     id="metadata253">
    <rdf:RDF>
      <cc:Work
         rdf:about="">
        <dc:format>image/svg+xml</dc:format>
        <dc:type
           rdf:resource="http://purl.org/dc/dcmitype/StillImage" />
      </cc:Work>
    </rdf:RDF>
  </metadata>
  <defs
     id="defs251" />
  <sodipodi:namedview
     pagecolor="#ffffff"
     bordercolor="#666666"
     borderopacity="1"
     objecttolerance="10"
     gridtolerance="10"
     guidetolerance="10"
     inkscape:pageopacity="0"
     inkscape:pageshadow="2"
     inkscape:window-width="640"
     inkscape:window-height="480"
     id="namedview249"
     showgrid="false"
     inkscape:zoom="2.4842105"
     inkscape:cx="47.5"
     inkscape:cy="47.5"
     inkscape:window-x="0"
     inkscape:window-y="0"
     inkscape:window-maximized="0"
     inkscape:current-layer="svg244" />
  <g
     id="surface1"
     style="fill:#666666">
    <path
       style="stroke:none;fill-rule:nonzero;fill:#666666;fill-opacity:1"
       d="M 63.332031 12.667969 L 63.332031 31.667969 L 44.332031 31.667969 L 44.332031 25.332031 L 52.152344 25.332031 C 48.679688 21.453125 43.644531 19 38 19 C 27.472656 19 19 27.472656 19 38 C 19 48.527344 27.472656 57 38 57 L 38 63.332031 C 23.964844 63.332031 12.667969 52.035156 12.667969 38 C 12.667969 23.964844 23.964844 12.667969 38 12.667969 C 45.613281 12.667969 52.367188 16.035156 57 21.320312 L 57 12.667969 Z M 38 34.832031 C 39.75 34.832031 41.167969 36.25 41.167969 38 C 41.167969 39.75 39.75 41.167969 38 41.167969 C 36.25 41.167969 34.832031 39.75 34.832031 38 C 34.832031 36.25 36.25 34.832031 38 34.832031 Z M 38 34.832031 "
       id="path247" />
  </g>
</svg>
