<?xml version="1.0" encoding="UTF-8"?>
<svg xmlns="http://www.w3.org/2000/svg" xmlns:xlink="http://www.w3.org/1999/xlink" width="76pt" height="76pt" viewBox="0 0 76 76" version="1.1">
<g id="surface1">
<path style=" stroke:none;fill-rule:nonzero;fill:rgb(90.588235%,29.803922%,23.529412%);fill-opacity:1;" d="M 12.667969 12.667969 L 12.667969 44.332031 L 22.167969 44.332031 L 22.167969 53.832031 L 31.667969 53.832031 L 31.667969 63.332031 L 63.332031 63.332031 L 63.332031 31.667969 L 53.832031 31.667969 L 53.832031 22.167969 L 44.332031 22.167969 L 44.332031 12.667969 Z M 19 19 L 38 19 L 38 22.167969 L 22.167969 22.167969 L 22.167969 38 L 19 38 Z M 28.5 28.5 L 47.5 28.5 L 47.5 31.667969 L 31.667969 31.667969 L 31.667969 47.5 L 28.5 47.5 Z M 38 38 L 57 38 L 57 57 L 38 57 Z M 38 38 "/>
</g>
</svg>
