<?xml version="1.0" encoding="UTF-8"?>
<svg xmlns="http://www.w3.org/2000/svg" xmlns:xlink="http://www.w3.org/1999/xlink" width="76pt" height="76pt" viewBox="0 0 76 76" version="1.1">
<g id="surface1">
<path style=" stroke:none;fill-rule:nonzero;fill:rgb(90.588235%,29.803922%,23.529412%);fill-opacity:1;" d="M 38 12.667969 C 24.007812 12.667969 12.667969 24.007812 12.667969 38 C 12.667969 51.988281 24.007812 63.332031 38 63.332031 C 51.988281 63.332031 63.332031 51.988281 63.332031 38 C 63.332031 24.007812 51.988281 12.667969 38 12.667969 Z M 38 19 C 41.941406 19.007812 45.785156 20.238281 48.996094 22.523438 L 22.53125 48.992188 C 20.242188 45.78125 19.007812 41.941406 19 38 C 19 27.507812 27.507812 19 38 19 Z M 53.46875 27.007812 C 55.757812 30.21875 56.992188 34.058594 57 38 C 57 48.492188 48.492188 57 38 57 C 34.058594 56.992188 30.214844 55.761719 27.003906 53.476562 Z M 53.46875 27.007812 "/>
</g>
</svg>
