<?xml version="1.0" encoding="UTF-8" standalone="no"?>
<svg
   xmlns:dc="http://purl.org/dc/elements/1.1/"
   xmlns:cc="http://creativecommons.org/ns#"
   xmlns:rdf="http://www.w3.org/1999/02/22-rdf-syntax-ns#"
   xmlns:svg="http://www.w3.org/2000/svg"
   xmlns="http://www.w3.org/2000/svg"
   xmlns:sodipodi="http://sodipodi.sourceforge.net/DTD/sodipodi-0.dtd"
   xmlns:inkscape="http://www.inkscape.org/namespaces/inkscape"
   width="76pt"
   height="76pt"
   viewBox="0 0 76 76"
   version="1.1"
   id="svg2"
   inkscape:version="0.91 r13725"
   sodipodi:docname="speaker.svg">
  <metadata
     id="metadata11">
    <rdf:RDF>
      <cc:Work
         rdf:about="">
        <dc:format>image/svg+xml</dc:format>
        <dc:type
           rdf:resource="http://purl.org/dc/dcmitype/StillImage" />
      </cc:Work>
    </rdf:RDF>
  </metadata>
  <defs
     id="defs9" />
  <sodipodi:namedview
     pagecolor="#ffffff"
     bordercolor="#666666"
     borderopacity="1"
     objecttolerance="10"
     gridtolerance="10"
     guidetolerance="10"
     inkscape:pageopacity="0"
     inkscape:pageshadow="2"
     inkscape:window-width="640"
     inkscape:window-height="480"
     id="namedview7"
     showgrid="false"
     inkscape:zoom="2.4842105"
     inkscape:cx="47.5"
     inkscape:cy="47.5"
     inkscape:window-x="0"
     inkscape:window-y="0"
     inkscape:window-maximized="0"
     inkscape:current-layer="svg2" />
  <g
     id="surface1"
     style="fill:#666666">
    <path
       style="stroke:none;fill-rule:nonzero;fill:#666666;fill-opacity:1"
       d="M 20.582031 12.667969 C 16.199219 12.667969 12.667969 16.199219 12.667969 20.582031 C 12.667969 22.996094 13.753906 25.121094 15.445312 26.570312 C 13.632812 30.109375 12.683594 34.027344 12.667969 38 C 12.679688 41.976562 13.628906 45.894531 15.4375 49.4375 C 13.753906 50.886719 12.667969 53.011719 12.667969 55.417969 C 12.667969 59.800781 16.199219 63.332031 20.582031 63.332031 C 23 63.332031 25.125 62.242188 26.578125 60.550781 C 30.113281 62.363281 34.027344 63.316406 38 63.332031 C 41.976562 63.320312 45.894531 62.371094 49.4375 60.5625 C 50.886719 62.246094 53.011719 63.332031 55.417969 63.332031 C 59.800781 63.332031 63.332031 59.800781 63.332031 55.417969 C 63.332031 53 62.242188 50.875 60.550781 49.421875 C 62.363281 45.886719 63.316406 41.972656 63.332031 38 C 63.320312 34.023438 62.371094 30.105469 60.5625 26.5625 C 62.246094 25.113281 63.332031 22.988281 63.332031 20.582031 C 63.332031 16.199219 59.800781 12.667969 55.417969 12.667969 C 53 12.667969 50.875 13.757812 49.421875 15.449219 C 45.886719 13.636719 41.972656 12.683594 38 12.667969 C 34.023438 12.679688 30.105469 13.628906 26.5625 15.4375 C 25.113281 13.753906 22.988281 12.667969 20.582031 12.667969 Z M 20.582031 19 C 20.785156 19 20.976562 19.042969 21.152344 19.109375 C 21.152344 19.109375 21.160156 19.117188 21.160156 19.117188 C 21.425781 19.222656 21.640625 19.40625 21.8125 19.625 C 21.851562 19.671875 21.882812 19.71875 21.914062 19.765625 C 22.0625 20.007812 22.167969 20.277344 22.167969 20.582031 C 22.167969 21.460938 21.460938 22.167969 20.582031 22.167969 C 20.277344 22.167969 20.007812 22.058594 19.765625 21.90625 C 19.722656 21.878906 19.675781 21.851562 19.636719 21.820312 C 19.414062 21.648438 19.222656 21.425781 19.117188 21.160156 C 19.046875 20.980469 19 20.789062 19 20.582031 C 19 19.703125 19.703125 19 20.582031 19 Z M 38 19 C 41.378906 19.007812 44.695312 19.914062 47.605469 21.628906 C 47.613281 21.632812 47.621094 21.636719 47.628906 21.640625 C 48.167969 21.960938 48.691406 22.304688 49.195312 22.671875 C 49.703125 23.046875 50.195312 23.445312 50.667969 23.867188 C 51.136719 24.292969 51.589844 24.738281 52.015625 25.203125 C 52.441406 25.671875 52.84375 26.164062 53.222656 26.667969 C 53.632812 27.222656 54.015625 27.796875 54.363281 28.394531 C 56.082031 31.304688 56.992188 34.621094 57 38 C 56.992188 41.378906 56.085938 44.695312 54.371094 47.605469 C 54.367188 47.613281 54.363281 47.621094 54.359375 47.628906 C 54.039062 48.167969 53.695312 48.691406 53.324219 49.195312 C 52.953125 49.703125 52.554688 50.195312 52.132812 50.667969 C 51.707031 51.136719 51.261719 51.589844 50.796875 52.015625 C 50.328125 52.441406 49.835938 52.84375 49.332031 53.222656 C 48.777344 53.632812 48.203125 54.015625 47.605469 54.363281 C 44.695312 56.082031 41.378906 56.992188 38 57 C 34.625 56.992188 31.304688 56.085938 28.394531 54.371094 C 28.386719 54.367188 28.378906 54.363281 28.371094 54.359375 C 27.832031 54.039062 27.308594 53.695312 26.804688 53.324219 C 26.296875 52.953125 25.804688 52.554688 25.332031 52.132812 C 24.863281 51.707031 24.410156 51.261719 23.984375 50.796875 C 23.558594 50.328125 23.15625 49.835938 22.777344 49.332031 C 22.367188 48.777344 21.984375 48.203125 21.632812 47.605469 C 19.917969 44.695312 19.007812 41.378906 19 38 C 19.007812 34.625 19.914062 31.304688 21.628906 28.394531 C 21.632812 28.386719 21.636719 28.378906 21.640625 28.371094 C 21.960938 27.832031 22.304688 27.308594 22.671875 26.804688 C 23.046875 26.296875 23.445312 25.804688 23.867188 25.332031 C 24.292969 24.863281 24.738281 24.410156 25.203125 23.984375 C 25.671875 23.558594 26.164062 23.15625 26.667969 22.777344 C 27.222656 22.367188 27.796875 21.984375 28.394531 21.632812 C 31.304688 19.917969 34.621094 19.007812 38 19 Z M 55.417969 19 C 56.292969 19 57 19.703125 57 20.582031 C 57 20.804688 56.957031 21.011719 56.875 21.203125 C 56.796875 21.390625 56.679688 21.5625 56.535156 21.703125 C 56.394531 21.84375 56.222656 21.960938 56.035156 22.042969 C 55.847656 22.125 55.636719 22.167969 55.417969 22.167969 C 55.195312 22.167969 54.988281 22.125 54.796875 22.042969 C 54.609375 21.960938 54.445312 21.84375 54.304688 21.703125 C 54.300781 21.703125 54.300781 21.703125 54.296875 21.703125 C 54.15625 21.5625 54.042969 21.398438 53.964844 21.214844 C 53.960938 21.210938 53.960938 21.203125 53.957031 21.203125 C 53.957031 21.199219 53.957031 21.199219 53.957031 21.195312 C 53.878906 21.007812 53.832031 20.800781 53.832031 20.582031 C 53.832031 20.363281 53.875 20.152344 53.957031 19.964844 C 54.039062 19.777344 54.15625 19.613281 54.296875 19.46875 C 54.296875 19.46875 54.296875 19.464844 54.296875 19.464844 C 54.4375 19.324219 54.597656 19.214844 54.78125 19.136719 C 54.792969 19.128906 54.804688 19.125 54.816406 19.117188 C 55.003906 19.042969 55.203125 19 55.417969 19 Z M 38 22.167969 C 29.253906 22.167969 22.167969 29.253906 22.167969 38 C 22.167969 46.746094 29.253906 53.832031 38 53.832031 C 46.746094 53.832031 53.832031 46.746094 53.832031 38 C 53.832031 29.253906 46.746094 22.167969 38 22.167969 Z M 38 28.5 C 43.246094 28.5 47.5 32.753906 47.5 38 C 47.5 43.246094 43.246094 47.5 38 47.5 C 32.753906 47.5 28.5 43.246094 28.5 38 C 28.5 32.753906 32.753906 28.5 38 28.5 Z M 38 34.832031 C 36.25 34.832031 34.832031 36.25 34.832031 38 C 34.832031 39.75 36.25 41.167969 38 41.167969 C 39.75 41.167969 41.167969 39.75 41.167969 38 C 41.167969 36.25 39.75 34.832031 38 34.832031 Z M 20.582031 53.832031 C 20.804688 53.832031 21.011719 53.875 21.203125 53.957031 C 21.390625 54.039062 21.554688 54.15625 21.695312 54.296875 C 21.695312 54.296875 21.703125 54.296875 21.703125 54.296875 C 21.84375 54.4375 21.957031 54.601562 22.035156 54.785156 C 22.039062 54.792969 22.039062 54.796875 22.042969 54.804688 C 22.121094 54.992188 22.167969 55.199219 22.167969 55.417969 C 22.167969 55.636719 22.125 55.847656 22.042969 56.035156 C 21.960938 56.222656 21.84375 56.386719 21.703125 56.53125 C 21.703125 56.53125 21.703125 56.53125 21.703125 56.535156 C 21.5625 56.675781 21.402344 56.785156 21.21875 56.863281 C 21.207031 56.871094 21.195312 56.875 21.183594 56.882812 C 20.996094 56.957031 20.796875 57 20.582031 57 C 19.703125 57 19 56.292969 19 55.417969 C 19 55.195312 19.042969 54.988281 19.125 54.796875 C 19.203125 54.609375 19.320312 54.441406 19.464844 54.296875 C 19.605469 54.15625 19.777344 54.039062 19.964844 53.957031 C 20.152344 53.875 20.363281 53.832031 20.582031 53.832031 Z M 55.417969 53.832031 C 55.636719 53.832031 55.847656 53.875 56.035156 53.957031 C 56.222656 54.039062 56.386719 54.15625 56.53125 54.296875 C 56.53125 54.296875 56.535156 54.296875 56.535156 54.296875 C 56.675781 54.4375 56.785156 54.597656 56.863281 54.78125 C 56.871094 54.792969 56.875 54.804688 56.882812 54.816406 C 56.957031 55.003906 57 55.203125 57 55.417969 C 57 56.292969 56.292969 57 55.417969 57 C 55.195312 57 54.988281 56.957031 54.796875 56.875 C 54.609375 56.796875 54.441406 56.679688 54.296875 56.535156 C 54.15625 56.394531 54.039062 56.222656 53.957031 56.035156 C 53.875 55.847656 53.832031 55.636719 53.832031 55.417969 C 53.832031 55.195312 53.875 54.988281 53.957031 54.796875 C 54.039062 54.609375 54.15625 54.445312 54.296875 54.304688 C 54.296875 54.304688 54.296875 54.296875 54.296875 54.296875 C 54.4375 54.15625 54.601562 54.042969 54.785156 53.964844 C 54.789062 53.960938 54.796875 53.960938 54.796875 53.957031 C 54.800781 53.957031 54.800781 53.957031 54.804688 53.957031 C 54.992188 53.878906 55.199219 53.832031 55.417969 53.832031 Z M 55.417969 53.832031 "
       id="path5" />
  </g>
</svg>
