<?xml version="1.0" encoding="UTF-8" standalone="no"?>
<svg
   xmlns:dc="http://purl.org/dc/elements/1.1/"
   xmlns:cc="http://creativecommons.org/ns#"
   xmlns:rdf="http://www.w3.org/1999/02/22-rdf-syntax-ns#"
   xmlns:svg="http://www.w3.org/2000/svg"
   xmlns="http://www.w3.org/2000/svg"
   xmlns:sodipodi="http://sodipodi.sourceforge.net/DTD/sodipodi-0.dtd"
   xmlns:inkscape="http://www.inkscape.org/namespaces/inkscape"
   width="76pt"
   height="76pt"
   viewBox="0 0 76 76"
   version="1.1"
   id="svg15"
   inkscape:version="0.91 r13725"
   sodipodi:docname="tools-report-bug.svg">
  <metadata
     id="metadata28">
    <rdf:RDF>
      <cc:Work
         rdf:about="">
        <dc:format>image/svg+xml</dc:format>
        <dc:type
           rdf:resource="http://purl.org/dc/dcmitype/StillImage" />
      </cc:Work>
    </rdf:RDF>
  </metadata>
  <defs
     id="defs26" />
  <sodipodi:namedview
     pagecolor="#ffffff"
     bordercolor="#666666"
     borderopacity="1"
     objecttolerance="10"
     gridtolerance="10"
     guidetolerance="10"
     inkscape:pageopacity="0"
     inkscape:pageshadow="2"
     inkscape:window-width="640"
     inkscape:window-height="480"
     id="namedview24"
     showgrid="false"
     inkscape:zoom="2.4842105"
     inkscape:cx="47.5"
     inkscape:cy="47.5"
     inkscape:window-x="0"
     inkscape:window-y="0"
     inkscape:window-maximized="0"
     inkscape:current-layer="svg15" />
  <path
     inkscape:connector-curvature="0"
     id="path18"
     d="m 38,12.667969 c -8.769531,0 -15.832031,7.0625 -15.832031,15.832031 l 31.664062,0 c 0,-8.769531 -7.0625,-15.832031 -15.832031,-15.832031 z m 0,0"
     style="fill:#666666;fill-opacity:1;fill-rule:nonzero;stroke:none" />
  <path
     inkscape:connector-curvature="0"
     id="path20"
     d="M 12.667969,31.667969 C 10.914062,31.667969 9.5,33.078125 9.5,34.832031 9.5,36.585938 10.914062,38 12.667969,38 l 50.664062,0 C 65.085938,38 66.5,36.585938 66.5,34.832031 c 0,-1.753906 -1.414062,-3.164062 -3.167969,-3.164062 z m 3.164062,12.664062 c -1.753906,0 -3.164062,1.414063 -3.164062,3.167969 0,1.753906 1.410156,3.167969 3.164062,3.167969 l 13.28125,0 -11.695312,6.753906 c -1.519531,0.878906 -2.035157,2.808594 -1.15625,4.328125 0.875,1.519531 2.804687,2.035156 4.320312,1.15625 l 13.714844,-7.917969 c 0.214844,-0.121093 0.363281,-0.3125 0.535156,-0.476562 l 0,-10.179688 z m 25.335938,0 0,10.179688 c 0.171875,0.164062 0.320312,0.355469 0.535156,0.476562 l 13.714844,7.917969 c 1.515625,0.878906 3.445312,0.363281 4.320312,-1.15625 0.878907,-1.519531 0.363281,-3.449219 -1.15625,-4.328125 l -11.695312,-6.753906 13.28125,0 c 1.753906,0 3.164062,-1.414063 3.164062,-3.167969 0,-1.753906 -1.410156,-3.167969 -3.164062,-3.167969 z m 0,0"
     style="fill:#666666;fill-opacity:1;fill-rule:nonzero;stroke:none" />
  <path
     inkscape:connector-curvature="0"
     id="path22"
     d="m 19,28.5 0,19 c 0,8.769531 7.0625,15.832031 15.832031,15.832031 l 0,-22.164062 6.335938,0 0,22.164062 C 49.9375,63.332031 57,56.269531 57,47.5 l 0,-19 z m 0,0"
     style="fill:#e64a3a;fill-opacity:1;fill-rule:nonzero;stroke:none" />
</svg>
