<?xml version="1.0" encoding="UTF-8" standalone="no"?>
<svg
   xmlns:dc="http://purl.org/dc/elements/1.1/"
   xmlns:cc="http://creativecommons.org/ns#"
   xmlns:rdf="http://www.w3.org/1999/02/22-rdf-syntax-ns#"
   xmlns:svg="http://www.w3.org/2000/svg"
   xmlns="http://www.w3.org/2000/svg"
   xmlns:sodipodi="http://sodipodi.sourceforge.net/DTD/sodipodi-0.dtd"
   xmlns:inkscape="http://www.inkscape.org/namespaces/inkscape"
   width="76pt"
   height="76pt"
   viewBox="0 0 76 76"
   version="1.1"
   id="svg35"
   inkscape:version="0.91 r13725"
   sodipodi:docname="tools-check-spelling.svg">
  <metadata
     id="metadata46">
    <rdf:RDF>
      <cc:Work
         rdf:about="">
        <dc:format>image/svg+xml</dc:format>
        <dc:type
           rdf:resource="http://purl.org/dc/dcmitype/StillImage" />
      </cc:Work>
    </rdf:RDF>
  </metadata>
  <defs
     id="defs44" />
  <sodipodi:namedview
     pagecolor="#ffffff"
     bordercolor="#666666"
     borderopacity="1"
     objecttolerance="10"
     gridtolerance="10"
     guidetolerance="10"
     inkscape:pageopacity="0"
     inkscape:pageshadow="2"
     inkscape:window-width="640"
     inkscape:window-height="480"
     id="namedview42"
     showgrid="false"
     inkscape:zoom="2.4842105"
     inkscape:cx="47.5"
     inkscape:cy="47.5"
     inkscape:window-x="0"
     inkscape:window-y="0"
     inkscape:window-maximized="0"
     inkscape:current-layer="svg35" />
  <path
     inkscape:connector-curvature="0"
     id="path38"
     d="m 15.832031,57 44.335938,0 0,6.332031 -44.335938,0 z m 0,0"
     style="fill:#85d17a;fill-opacity:1;fill-rule:nonzero;stroke:none" />
  <path
     inkscape:connector-curvature="0"
     id="path40"
     d="m 28.5,12.667969 0,28.5 c 0,5.261719 4.238281,9.5 9.5,9.5 5.261719,0 9.5,-4.238281 9.5,-9.5 0,-5.265625 -4.238281,-9.5 -9.5,-9.5 -1.117188,0 -2.171875,0.222656 -3.167969,0.574219 l 0,-19.574219 z m -15.832031,19 c -5.265625,0 -9.5,4.234375 -9.5,9.5 0,5.261719 4.234375,9.5 9.5,9.5 1.113281,0 2.167969,-0.222657 3.164062,-0.578125 l 0,0.578125 6.335938,0 0,-9.5 c 0,-5.265625 -4.238281,-9.5 -9.5,-9.5 z m 50.664062,0 c -5.261719,0 -9.5,4.234375 -9.5,9.5 0,5.261719 4.238281,9.5 9.5,9.5 2.632813,0 5.007813,-1.0625 6.722657,-2.777344 L 65.570312,43.40625 C 65,43.976562 64.210938,44.332031 63.332031,44.332031 c -1.753906,0 -3.164062,-1.410156 -3.164062,-3.164062 C 60.167969,39.414062 61.578125,38 63.332031,38 64.210938,38 65,38.355469 65.570312,38.929688 l 4.484376,-4.484376 c -1.714844,-1.71875 -4.089844,-2.777343 -6.722657,-2.777343 z M 12.667969,38 c 1.753906,0 3.164062,1.414062 3.164062,3.167969 0,1.753906 -1.410156,3.164062 -3.164062,3.164062 C 10.914062,44.332031 9.5,42.921875 9.5,41.167969 9.5,39.414062 10.914062,38 12.667969,38 Z M 38,38 c 1.753906,0 3.167969,1.414062 3.167969,3.167969 0,1.753906 -1.414063,3.164062 -3.167969,3.164062 -1.753906,0 -3.167969,-1.410156 -3.167969,-3.164062 C 34.832031,39.414062 36.246094,38 38,38 Z m 0,0"
     style="fill:#666666;fill-opacity:1;fill-rule:nonzero;stroke:none" />
</svg>
