<?xml version="1.0" encoding="UTF-8" standalone="no"?>
<svg
   xmlns:dc="http://purl.org/dc/elements/1.1/"
   xmlns:cc="http://creativecommons.org/ns#"
   xmlns:rdf="http://www.w3.org/1999/02/22-rdf-syntax-ns#"
   xmlns:svg="http://www.w3.org/2000/svg"
   xmlns="http://www.w3.org/2000/svg"
   xmlns:sodipodi="http://sodipodi.sourceforge.net/DTD/sodipodi-0.dtd"
   xmlns:inkscape="http://www.inkscape.org/namespaces/inkscape"
   width="76pt"
   height="76pt"
   viewBox="0 0 76 76"
   version="1.1"
   id="svg241"
   inkscape:version="0.91 r13725"
   sodipodi:docname="view-sort-ascending.svg">
  <metadata
     id="metadata250">
    <rdf:RDF>
      <cc:Work
         rdf:about="">
        <dc:format>image/svg+xml</dc:format>
        <dc:type
           rdf:resource="http://purl.org/dc/dcmitype/StillImage" />
      </cc:Work>
    </rdf:RDF>
  </metadata>
  <defs
     id="defs248" />
  <sodipodi:namedview
     pagecolor="#ffffff"
     bordercolor="#666666"
     borderopacity="1"
     objecttolerance="10"
     gridtolerance="10"
     guidetolerance="10"
     inkscape:pageopacity="0"
     inkscape:pageshadow="2"
     inkscape:window-width="640"
     inkscape:window-height="480"
     id="namedview246"
     showgrid="false"
     inkscape:zoom="2.4842105"
     inkscape:cx="47.5"
     inkscape:cy="47.5"
     inkscape:window-x="0"
     inkscape:window-y="0"
     inkscape:window-maximized="0"
     inkscape:current-layer="svg241" />
  <g
     id="surface1"
     style="fill:#666666">
    <path
       style="stroke:none;fill-rule:nonzero;fill:#666666;fill-opacity:1"
       d="M 20.582031 12.667969 C 16.199219 12.667969 12.667969 16.199219 12.667969 20.582031 C 12.667969 24.96875 16.199219 28.5 20.582031 28.5 C 24.96875 28.5 28.5 24.96875 28.5 20.582031 C 28.5 16.199219 24.96875 12.667969 20.582031 12.667969 Z M 34.832031 12.667969 L 34.832031 19 L 63.332031 19 L 63.332031 12.667969 Z M 34.832031 22.167969 L 34.832031 28.5 L 47.5 28.5 L 47.5 22.167969 Z M 20.582031 38 C 16.199219 38 12.667969 41.53125 12.667969 45.917969 C 12.667969 50.300781 16.199219 53.832031 20.582031 53.832031 C 24.96875 53.832031 28.5 50.300781 28.5 45.917969 C 28.5 41.53125 24.96875 38 20.582031 38 Z M 34.832031 38 L 34.832031 44.332031 L 47.5 44.332031 L 47.5 38 Z M 53.832031 44.332031 L 53.832031 57 L 50.667969 57 L 57 63.332031 L 63.332031 57 L 60.167969 57 L 60.167969 44.332031 Z M 34.832031 47.5 L 34.832031 53.832031 L 41.167969 53.832031 L 41.167969 47.5 Z M 34.832031 47.5 "
       id="path244" />
  </g>
</svg>
