<?xml version="1.0" encoding="UTF-8" standalone="no"?>
<svg
   xmlns:dc="http://purl.org/dc/elements/1.1/"
   xmlns:cc="http://creativecommons.org/ns#"
   xmlns:rdf="http://www.w3.org/1999/02/22-rdf-syntax-ns#"
   xmlns:svg="http://www.w3.org/2000/svg"
   xmlns="http://www.w3.org/2000/svg"
   xmlns:sodipodi="http://sodipodi.sourceforge.net/DTD/sodipodi-0.dtd"
   xmlns:inkscape="http://www.inkscape.org/namespaces/inkscape"
   width="76pt"
   height="76pt"
   viewBox="0 0 76 76"
   version="1.1"
   id="svg252"
   inkscape:version="0.91 r13725"
   sodipodi:docname="view-sort-descending.svg">
  <metadata
     id="metadata261">
    <rdf:RDF>
      <cc:Work
         rdf:about="">
        <dc:format>image/svg+xml</dc:format>
        <dc:type
           rdf:resource="http://purl.org/dc/dcmitype/StillImage" />
      </cc:Work>
    </rdf:RDF>
  </metadata>
  <defs
     id="defs259" />
  <sodipodi:namedview
     pagecolor="#ffffff"
     bordercolor="#666666"
     borderopacity="1"
     objecttolerance="10"
     gridtolerance="10"
     guidetolerance="10"
     inkscape:pageopacity="0"
     inkscape:pageshadow="2"
     inkscape:window-width="640"
     inkscape:window-height="480"
     id="namedview257"
     showgrid="false"
     inkscape:zoom="2.4842105"
     inkscape:cx="47.5"
     inkscape:cy="47.5"
     inkscape:window-x="0"
     inkscape:window-y="0"
     inkscape:window-maximized="0"
     inkscape:current-layer="svg252" />
  <g
     id="surface1"
     style="fill:#666666">
    <path
       style="stroke:none;fill-rule:nonzero;fill:#666666;fill-opacity:1"
       d="M 57 12.667969 L 50.667969 19 L 53.832031 19 L 53.832031 31.667969 L 60.167969 31.667969 L 60.167969 19 L 63.332031 19 Z M 20.582031 22.167969 C 16.199219 22.167969 12.667969 25.699219 12.667969 30.082031 C 12.667969 34.46875 16.199219 38 20.582031 38 C 24.96875 38 28.5 34.46875 28.5 30.082031 C 28.5 25.699219 24.96875 22.167969 20.582031 22.167969 Z M 34.832031 22.167969 L 34.832031 28.5 L 41.167969 28.5 L 41.167969 22.167969 Z M 34.832031 31.667969 L 34.832031 38 L 47.5 38 L 47.5 31.667969 Z M 20.582031 47.5 C 16.199219 47.5 12.667969 51.03125 12.667969 55.417969 C 12.667969 59.800781 16.199219 63.332031 20.582031 63.332031 C 24.96875 63.332031 28.5 59.800781 28.5 55.417969 C 28.5 51.03125 24.96875 47.5 20.582031 47.5 Z M 34.832031 47.5 L 34.832031 53.832031 L 47.5 53.832031 L 47.5 47.5 Z M 34.832031 57 L 34.832031 63.332031 L 63.332031 63.332031 L 63.332031 57 Z M 34.832031 57 "
       id="path255" />
  </g>
</svg>
