<?xml version="1.0" encoding="UTF-8" standalone="no"?>
<svg
   xmlns:dc="http://purl.org/dc/elements/1.1/"
   xmlns:cc="http://creativecommons.org/ns#"
   xmlns:rdf="http://www.w3.org/1999/02/22-rdf-syntax-ns#"
   xmlns:svg="http://www.w3.org/2000/svg"
   xmlns="http://www.w3.org/2000/svg"
   xmlns:sodipodi="http://sodipodi.sourceforge.net/DTD/sodipodi-0.dtd"
   xmlns:inkscape="http://www.inkscape.org/namespaces/inkscape"
   width="76pt"
   height="76pt"
   viewBox="0 0 76 76"
   version="1.1"
   id="svg230"
   inkscape:version="0.91 r13725"
   sodipodi:docname="view-sidetree.svg">
  <metadata
     id="metadata239">
    <rdf:RDF>
      <cc:Work
         rdf:about="">
        <dc:format>image/svg+xml</dc:format>
        <dc:type
           rdf:resource="http://purl.org/dc/dcmitype/StillImage" />
      </cc:Work>
    </rdf:RDF>
  </metadata>
  <defs
     id="defs237" />
  <sodipodi:namedview
     pagecolor="#ffffff"
     bordercolor="#666666"
     borderopacity="1"
     objecttolerance="10"
     gridtolerance="10"
     guidetolerance="10"
     inkscape:pageopacity="0"
     inkscape:pageshadow="2"
     inkscape:window-width="640"
     inkscape:window-height="480"
     id="namedview235"
     showgrid="false"
     inkscape:zoom="2.4842105"
     inkscape:cx="47.5"
     inkscape:cy="47.5"
     inkscape:window-x="0"
     inkscape:window-y="0"
     inkscape:window-maximized="0"
     inkscape:current-layer="svg230" />
  <g
     id="surface1"
     style="fill:#666666">
    <path
       style="stroke:none;fill-rule:nonzero;fill:#666666;fill-opacity:1"
       d="M 47.5 12.351562 L 47.5 15.832031 L 34.832031 15.832031 L 34.832031 34.832031 L 28.5 34.832031 L 28.5 28.5 L 9.5 28.5 L 9.5 47.5 L 28.5 47.5 L 28.5 41.167969 L 34.832031 41.167969 L 34.832031 60.167969 L 47.5 60.167969 L 47.5 63.332031 L 66.5 63.332031 L 66.5 44.332031 L 47.5 44.332031 L 47.5 53.832031 L 41.167969 53.832031 L 41.167969 22.167969 L 47.5 22.167969 L 47.5 31.351562 L 66.5 31.351562 L 66.5 12.351562 Z M 53.832031 18.683594 L 60.167969 18.683594 L 60.167969 25.019531 L 53.832031 25.019531 Z M 15.832031 34.832031 L 22.167969 34.832031 L 22.167969 41.167969 L 15.832031 41.167969 Z M 15.832031 34.832031 "
       id="path233" />
  </g>
</svg>
