<?xml version="1.0" encoding="UTF-8" standalone="no"?>
<svg
   xmlns:dc="http://purl.org/dc/elements/1.1/"
   xmlns:cc="http://creativecommons.org/ns#"
   xmlns:rdf="http://www.w3.org/1999/02/22-rdf-syntax-ns#"
   xmlns:svg="http://www.w3.org/2000/svg"
   xmlns="http://www.w3.org/2000/svg"
   xmlns:sodipodi="http://sodipodi.sourceforge.net/DTD/sodipodi-0.dtd"
   xmlns:inkscape="http://www.inkscape.org/namespaces/inkscape"
   width="76pt"
   height="76pt"
   viewBox="0 0 76 76"
   version="1.1"
   id="svg30"
   inkscape:version="0.91 r13725"
   sodipodi:docname="zoom-2-to-1.svg">
  <metadata
     id="metadata45">
    <rdf:RDF>
      <cc:Work
         rdf:about="">
        <dc:format>image/svg+xml</dc:format>
        <dc:type
           rdf:resource="http://purl.org/dc/dcmitype/StillImage" />
      </cc:Work>
    </rdf:RDF>
  </metadata>
  <defs
     id="defs43" />
  <sodipodi:namedview
     pagecolor="#ffffff"
     bordercolor="#666666"
     borderopacity="1"
     objecttolerance="10"
     gridtolerance="10"
     guidetolerance="10"
     inkscape:pageopacity="0"
     inkscape:pageshadow="2"
     inkscape:window-width="640"
     inkscape:window-height="480"
     id="namedview41"
     showgrid="false"
     inkscape:zoom="2.4842105"
     inkscape:cx="47.5"
     inkscape:cy="47.5"
     inkscape:window-x="0"
     inkscape:window-y="0"
     inkscape:window-maximized="0"
     inkscape:current-layer="svg30" />
  <g
     id="surface1"
     style="fill:#666666">
    <path
       style="stroke:none;fill-rule:nonzero;fill:#666666;fill-opacity:1"
       d="M 12.667969 12.667969 L 12.667969 25.332031 L 19 25.332031 L 19 19 L 25.332031 19 L 25.332031 12.667969 Z M 50.667969 12.667969 L 50.667969 19 L 57 19 L 57 25.332031 L 63.332031 25.332031 L 63.332031 12.667969 Z M 12.667969 50.667969 L 12.667969 63.332031 L 25.332031 63.332031 L 25.332031 57 L 19 57 L 19 50.667969 Z M 57 50.667969 L 57 57 L 50.667969 57 L 50.667969 63.332031 L 63.332031 63.332031 L 63.332031 50.667969 Z M 57 50.667969 "
       id="path33" />
    <path
       style="stroke:none;fill-rule:nonzero;fill:#666666;fill-opacity:1"
       d="M 44.332031 38 C 44.332031 39.75 45.75 41.167969 47.5 41.167969 C 49.25 41.167969 50.667969 39.75 50.667969 38 C 50.667969 36.25 49.25 34.832031 47.5 34.832031 C 45.75 34.832031 44.332031 36.25 44.332031 38 Z M 44.332031 38 "
       id="path35" />
    <path
       style="stroke:none;fill-rule:nonzero;fill:#666666;fill-opacity:1"
       d="M 28.5 25.332031 C 28.5 27.082031 29.917969 28.5 31.667969 28.5 C 33.417969 28.5 34.832031 27.082031 34.832031 25.332031 C 34.832031 23.582031 33.417969 22.167969 31.667969 22.167969 C 29.917969 22.167969 28.5 23.582031 28.5 25.332031 Z M 28.5 25.332031 "
       id="path37" />
    <path
       style="stroke:none;fill-rule:nonzero;fill:#666666;fill-opacity:1"
       d="M 28.5 50.667969 C 28.5 52.417969 29.917969 53.832031 31.667969 53.832031 C 33.417969 53.832031 34.832031 52.417969 34.832031 50.667969 C 34.832031 48.917969 33.417969 47.5 31.667969 47.5 C 29.917969 47.5 28.5 48.917969 28.5 50.667969 Z M 28.5 50.667969 "
       id="path39" />
  </g>
</svg>
