<?xml version="1.0" encoding="UTF-8" standalone="no"?>
<svg
   xmlns:dc="http://purl.org/dc/elements/1.1/"
   xmlns:cc="http://creativecommons.org/ns#"
   xmlns:rdf="http://www.w3.org/1999/02/22-rdf-syntax-ns#"
   xmlns:svg="http://www.w3.org/2000/svg"
   xmlns="http://www.w3.org/2000/svg"
   xmlns:sodipodi="http://sodipodi.sourceforge.net/DTD/sodipodi-0.dtd"
   xmlns:inkscape="http://www.inkscape.org/namespaces/inkscape"
   width="76pt"
   height="76pt"
   viewBox="0 0 76 76"
   version="1.1"
   id="svg13"
   inkscape:version="0.91 r13725"
   sodipodi:docname="zoom-1-to-2.svg">
  <metadata
     id="metadata28">
    <rdf:RDF>
      <cc:Work
         rdf:about="">
        <dc:format>image/svg+xml</dc:format>
        <dc:type
           rdf:resource="http://purl.org/dc/dcmitype/StillImage" />
      </cc:Work>
    </rdf:RDF>
  </metadata>
  <defs
     id="defs26" />
  <sodipodi:namedview
     pagecolor="#ffffff"
     bordercolor="#666666"
     borderopacity="1"
     objecttolerance="10"
     gridtolerance="10"
     guidetolerance="10"
     inkscape:pageopacity="0"
     inkscape:pageshadow="2"
     inkscape:window-width="640"
     inkscape:window-height="480"
     id="namedview24"
     showgrid="false"
     inkscape:zoom="2.4842105"
     inkscape:cx="47.5"
     inkscape:cy="47.5"
     inkscape:window-x="0"
     inkscape:window-y="0"
     inkscape:window-maximized="0"
     inkscape:current-layer="svg13" />
  <g
     id="surface1"
     style="fill:#666666">
    <path
       style="stroke:none;fill-rule:nonzero;fill:#666666;fill-opacity:1"
       d="M 12.667969 12.667969 L 12.667969 25.332031 L 19 25.332031 L 19 19 L 25.332031 19 L 25.332031 12.667969 Z M 50.667969 12.667969 L 50.667969 19 L 57 19 L 57 25.332031 L 63.332031 25.332031 L 63.332031 12.667969 Z M 12.667969 50.667969 L 12.667969 63.332031 L 25.332031 63.332031 L 25.332031 57 L 19 57 L 19 50.667969 Z M 57 50.667969 L 57 57 L 50.667969 57 L 50.667969 63.332031 L 63.332031 63.332031 L 63.332031 50.667969 Z M 57 50.667969 "
       id="path16" />
    <path
       style="stroke:none;fill-rule:nonzero;fill:#666666;fill-opacity:1"
       d="M 31.667969 38 C 31.667969 39.75 30.25 41.167969 28.5 41.167969 C 26.75 41.167969 25.332031 39.75 25.332031 38 C 25.332031 36.25 26.75 34.832031 28.5 34.832031 C 30.25 34.832031 31.667969 36.25 31.667969 38 Z M 31.667969 38 "
       id="path18" />
    <path
       style="stroke:none;fill-rule:nonzero;fill:#666666;fill-opacity:1"
       d="M 47.5 25.332031 C 47.5 27.082031 46.082031 28.5 44.332031 28.5 C 42.582031 28.5 41.167969 27.082031 41.167969 25.332031 C 41.167969 23.582031 42.582031 22.167969 44.332031 22.167969 C 46.082031 22.167969 47.5 23.582031 47.5 25.332031 Z M 47.5 25.332031 "
       id="path20" />
    <path
       style="stroke:none;fill-rule:nonzero;fill:#666666;fill-opacity:1"
       d="M 47.5 50.667969 C 47.5 52.417969 46.082031 53.832031 44.332031 53.832031 C 42.582031 53.832031 41.167969 52.417969 41.167969 50.667969 C 41.167969 48.917969 42.582031 47.5 44.332031 47.5 C 46.082031 47.5 47.5 48.917969 47.5 50.667969 Z M 47.5 50.667969 "
       id="path22" />
  </g>
</svg>
