<?xml version="1.0" encoding="UTF-8" standalone="no"?>
<svg
   xmlns:dc="http://purl.org/dc/elements/1.1/"
   xmlns:cc="http://creativecommons.org/ns#"
   xmlns:rdf="http://www.w3.org/1999/02/22-rdf-syntax-ns#"
   xmlns:svg="http://www.w3.org/2000/svg"
   xmlns="http://www.w3.org/2000/svg"
   xmlns:sodipodi="http://sodipodi.sourceforge.net/DTD/sodipodi-0.dtd"
   xmlns:inkscape="http://www.inkscape.org/namespaces/inkscape"
   width="76pt"
   height="76pt"
   viewBox="0 0 76 76"
   version="1.1"
   id="svg196"
   inkscape:version="0.91 r13725"
   sodipodi:docname="zoom-previous.svg">
  <metadata
     id="metadata207">
    <rdf:RDF>
      <cc:Work
         rdf:about="">
        <dc:format>image/svg+xml</dc:format>
        <dc:type
           rdf:resource="http://purl.org/dc/dcmitype/StillImage" />
      </cc:Work>
    </rdf:RDF>
  </metadata>
  <defs
     id="defs205" />
  <sodipodi:namedview
     pagecolor="#ffffff"
     bordercolor="#666666"
     borderopacity="1"
     objecttolerance="10"
     gridtolerance="10"
     guidetolerance="10"
     inkscape:pageopacity="0"
     inkscape:pageshadow="2"
     inkscape:window-width="640"
     inkscape:window-height="480"
     id="namedview203"
     showgrid="false"
     inkscape:zoom="2.4842105"
     inkscape:cx="47.5"
     inkscape:cy="47.5"
     inkscape:window-x="0"
     inkscape:window-y="0"
     inkscape:window-maximized="0"
     inkscape:current-layer="svg196" />
  <g
     id="surface1"
     style="fill:#666666">
    <path
       style="stroke:none;fill-rule:nonzero;fill:#666666;fill-opacity:1"
       d="M 10.363281 10.363281 L 10.363281 24.183594 L 17.269531 24.183594 L 17.269531 17.269531 L 24.183594 17.269531 L 24.183594 10.363281 Z M 51.816406 10.363281 L 51.816406 17.269531 L 58.730469 17.269531 L 58.730469 24.183594 L 65.636719 24.183594 L 65.636719 10.363281 Z M 10.363281 51.816406 L 10.363281 65.636719 L 24.183594 65.636719 L 24.183594 58.730469 L 17.269531 58.730469 L 17.269531 51.816406 Z M 58.730469 51.816406 L 58.730469 58.730469 L 51.816406 58.730469 L 51.816406 65.636719 L 65.636719 65.636719 L 65.636719 51.816406 Z M 58.730469 51.816406 "
       id="path199" />
    <path
       style="stroke:none;fill-rule:nonzero;fill:#666666;fill-opacity:1"
       d="M 24.183594 38 L 34.546875 27.636719 L 34.546875 34.546875 L 51.816406 34.546875 L 51.816406 41.453125 L 34.546875 41.453125 L 34.546875 48.363281 Z M 24.183594 38 "
       id="path201" />
  </g>
</svg>
